<?xml version="1.0" standalone="no"?>
<!DOCTYPE svg PUBLIC "-//W3C//DTD SVG 20010904//EN"
 "http://www.w3.org/TR/2001/REC-SVG-20010904/DTD/svg10.dtd">
<svg version="1.0" xmlns="http://www.w3.org/2000/svg"
 width="1280.000000pt" height="1186.000000pt" viewBox="0 0 1280.000000 1186.000000"
 preserveAspectRatio="xMidYMid meet">
<metadata>
Created by potrace 1.15, written by Peter Selinger 2001-2017
</metadata>
<g transform="translate(0.000000,1186.000000) scale(0.100000,-0.100000)"
fill="#000000" stroke="none">
<path d="M5395 11850 c-20 -8 -55 -45 -124 -129 -39 -49 -49 -47 -32 7 7 21
11 51 9 67 -3 27 -8 20 -47 -59 -50 -103 -81 -189 -81 -223 0 -12 -4 -23 -10
-23 -12 0 -21 -36 -60 -225 -51 -249 -77 -325 -108 -325 -7 0 -10 -4 -7 -10 8
-14 2 -13 -31 5 -20 10 -60 15 -131 15 -104 0 -106 -1 -138 -45 -14 -19 -14
-19 -15 6 0 14 -8 33 -18 42 -20 19 -37 23 -27 7 4 -6 -14 -10 -45 -10 -42 0
-51 -3 -46 -15 3 -9 0 -15 -8 -15 -7 0 -19 7 -26 15 -20 24 -47 18 -89 -20
-37 -34 -71 -46 -71 -25 0 6 9 10 20 10 14 0 20 7 20 21 0 16 -4 19 -22 14
-31 -9 -68 -33 -68 -44 0 -5 -26 -12 -57 -15 -32 -4 -84 -14 -117 -23 -44 -12
-66 -14 -86 -6 -23 9 -31 7 -45 -9 -11 -13 -24 -18 -38 -14 -12 3 -30 6 -40 6
-32 0 -12 25 22 27 17 1 37 6 44 11 7 6 25 12 41 14 16 1 31 9 34 16 3 9 -22
12 -105 11 -59 -1 -96 -4 -80 -6 33 -5 35 -16 5 -31 -20 -9 -20 -11 -5 -11 22
-1 17 -26 -4 -26 -8 0 -15 12 -17 28 -2 15 -9 27 -17 27 -9 0 -12 6 -9 15 5
12 -3 15 -41 15 -38 0 -48 -4 -52 -20 -6 -24 -16 -25 -48 -4 -30 20 -32 11 -5
-16 11 -11 29 -20 40 -20 11 0 20 -5 20 -11 0 -5 5 -7 10 -4 6 3 10 4 10 0 0
-12 -46 -22 -62 -13 -14 6 -18 5 -18 -7 0 -11 -10 -15 -35 -15 -19 0 -35 -4
-35 -10 0 -5 6 -10 14 -10 22 0 40 -28 28 -43 -6 -7 -7 -18 -3 -26 7 -11 11
-9 21 8 16 31 32 22 44 -28 12 -47 29 -59 34 -23 2 12 10 22 18 22 8 0 14 5
14 12 0 7 12 22 28 35 l27 22 -40 -2 c-34 -2 -40 1 -43 20 -3 20 -1 21 30 11
76 -25 73 -19 28 -71 -41 -46 -42 -48 -26 -72 9 -14 21 -25 26 -25 13 0 2 -50
-15 -70 -8 -9 -10 -22 -5 -35 5 -11 9 -48 9 -82 1 -49 -2 -63 -14 -63 -20 0
-82 -57 -72 -66 4 -5 12 -2 16 5 6 9 11 10 15 2 5 -8 13 -8 28 0 29 16 37 3
53 -87 21 -117 21 -118 -22 -79 -30 27 -39 31 -41 19 -3 -13 -6 -12 -18 5 -11
16 -23 20 -52 17 -20 -2 -46 -7 -57 -12 -17 -7 -18 -6 -7 8 16 19 4 29 -26 21
-30 -7 -29 -34 13 -342 44 -322 50 -358 80 -456 14 -44 41 -152 61 -240 81
-354 91 -393 121 -437 16 -24 40 -69 53 -101 35 -86 38 -86 128 -33 42 25 121
66 175 91 97 45 132 56 110 34 -6 -6 -9 -17 -6 -24 5 -14 -4 -21 -92 -70 -39
-22 -45 -30 -31 -35 14 -5 7 -14 -41 -51 -32 -25 -85 -64 -119 -87 l-60 -42 7
-58 c4 -31 8 -82 8 -113 1 -46 41 -229 102 -466 9 -34 26 -54 94 -113 46 -39
105 -96 131 -127 l47 -55 48 6 c68 9 161 41 265 92 90 44 126 72 148 116 8 16
20 23 42 23 34 0 88 40 168 123 64 66 81 92 81 122 0 19 9 29 36 42 34 16 79
71 79 96 0 6 -11 10 -24 9 -33 -3 -38 16 -6 23 14 3 36 13 49 22 21 15 23 21
14 40 -20 41 -24 104 -8 118 8 7 15 28 15 46 0 30 3 34 25 34 29 0 29 0 10 47
-8 19 -15 46 -15 59 0 19 -5 24 -25 24 -14 0 -33 7 -42 16 -10 8 -34 25 -53
37 -32 21 -35 27 -38 79 -2 38 2 68 13 88 28 55 8 45 -24 -12 -17 -29 -31 -65
-31 -80 0 -16 -4 -28 -9 -28 -13 0 -20 63 -9 78 7 8 7 12 -2 12 -8 0 -7 8 5
27 12 18 14 28 7 31 -7 2 -12 8 -12 14 0 6 7 8 15 4 11 -4 15 1 15 18 0 13 -8
27 -17 30 -15 6 -13 10 10 32 28 25 35 44 17 44 -5 0 -10 -4 -10 -10 0 -5 -5
-10 -10 -10 -7 0 -7 6 0 20 6 11 17 20 25 20 8 0 12 6 9 14 -7 17 29 27 69 19
28 -6 29 -7 12 -20 -18 -12 -17 -13 7 -13 14 0 31 -7 38 -15 7 -8 21 -15 30
-15 33 0 27 -25 -9 -43 -22 -10 -27 -16 -13 -13 16 3 22 -1 22 -15 0 -10 4
-19 9 -19 4 0 7 -10 5 -22 -3 -13 3 -32 12 -43 15 -20 16 -20 39 8 23 25 45
36 45 20 0 -4 -19 -27 -42 -50 -41 -41 -41 -43 -23 -58 13 -9 31 -12 54 -8 32
5 33 5 21 -16 -10 -20 -9 -23 9 -28 20 -5 30 -23 13 -23 -4 0 -6 -16 -4 -35 5
-42 11 -43 43 -8 13 15 16 21 7 14 -10 -7 -23 -11 -30 -8 -8 3 -2 10 15 17 25
12 29 11 48 -9 l21 -22 -23 -26 c-22 -24 -23 -25 -4 -19 17 5 21 1 21 -17 0
-12 -7 -27 -15 -34 -14 -10 -10 -13 19 -13 l35 -2 -32 -14 c-36 -16 -44 -29
-13 -21 26 7 26 -8 0 -26 -14 -10 -18 -21 -14 -41 3 -16 -1 -33 -11 -42 -8 -9
-15 -23 -15 -31 0 -13 5 -12 25 7 14 13 25 21 25 18 0 -4 -17 -39 -39 -80 -21
-40 -41 -84 -44 -98 -4 -14 -20 -40 -37 -58 -17 -19 -30 -44 -30 -58 0 -29
-16 -64 -30 -64 -15 0 -50 -38 -60 -66 -16 -40 -12 -79 10 -107 11 -14 20 -27
20 -30 0 -3 -9 -7 -20 -10 -27 -7 -27 -53 -1 -62 13 -4 22 -19 26 -48 9 -52
24 -83 25 -49 0 12 5 22 10 22 19 0 84 -30 103 -47 14 -13 20 -14 26 -5 4 7
13 12 19 10 6 -2 18 6 26 17 15 20 15 20 16 -2 0 -15 5 -21 14 -17 7 3 16 -2
19 -10 5 -13 23 -16 87 -16 76 0 81 1 90 24 5 13 13 25 18 27 6 2 -4 52 -24
114 -37 120 -84 297 -84 316 0 9 4 8 15 -1 8 -7 15 -26 15 -42 0 -26 2 -28 15
-18 20 17 33 5 41 -38 7 -39 42 -117 50 -110 2 3 -8 49 -23 104 -34 129 -33
202 6 389 38 184 55 402 46 587 -4 75 -1 359 6 630 11 464 9 603 -11 553 -12
-29 -12 -1 0 29 6 16 6 27 0 31 -7 4 -6 13 0 25 5 10 10 34 10 52 0 19 20 127
44 240 47 215 137 709 162 885 13 98 13 106 -5 141 -36 70 -186 203 -364 324
-119 80 -179 100 -232 78z m-159 -96 c-4 -9 -9 -15 -11 -12 -3 3 -3 13 1 22 4
9 9 15 11 12 3 -3 3 -13 -1 -22z m428 -149 c-4 -8 -8 -15 -10 -15 -2 0 -4 7
-4 15 0 8 4 15 10 15 5 0 7 -7 4 -15z m-232 -272 c15 -16 30 -41 34 -58 l7
-30 -30 28 c-16 15 -34 27 -39 27 -17 0 -48 -39 -66 -83 l-17 -42 0 70 c-1 48
4 78 15 93 21 31 64 29 96 -5z m12 -126 c-9 -24 -24 -11 -24 21 0 24 2 25 15
11 9 -9 13 -23 9 -32z m-84 -47 c0 -22 -4 -40 -10 -40 -5 0 -10 18 -10 40 0
22 5 40 10 40 6 0 10 -18 10 -40z m102 -46 c-6 -63 -54 -94 -91 -59 -12 12
-11 16 11 24 15 5 34 24 44 40 22 38 40 35 36 -5z m-132 -55 c0 -11 -4 -17
-10 -14 -5 3 -10 13 -10 21 0 8 5 14 10 14 6 0 10 -9 10 -21z m202 -121 c-7
-7 -12 -8 -12 -2 0 14 12 26 19 19 2 -3 -1 -11 -7 -17z m-792 -18 c0 -12 -45
-24 -60 -15 -5 3 -8 11 -5 16 8 12 65 12 65 -1z m-289 -22 c16 -30 28 -38 61
-38 16 0 38 -11 53 -26 14 -14 32 -23 40 -20 8 3 17 1 21 -5 3 -6 12 -8 20 -5
9 3 18 -3 23 -17 5 -12 19 -28 32 -35 39 -22 201 -273 186 -288 -3 -3 -30 32
-60 78 -60 92 -164 198 -196 198 -11 0 -43 19 -70 43 -92 79 -131 108 -131 98
0 -6 -11 -11 -25 -11 -29 0 -31 7 -8 32 22 24 40 23 54 -4z m-561 -18 c0 -5
-5 -10 -11 -10 -5 0 -7 5 -4 10 3 6 8 10 11 10 2 0 4 -4 4 -10z m916 -15 c16
-12 17 -14 2 -15 -23 0 -48 11 -48 21 0 14 24 11 46 -6z m-1036 -34 c0 -12
-39 -25 -48 -16 -7 7 17 25 36 25 6 0 12 -4 12 -9z m170 -21 c0 -5 -5 -10 -11
-10 -5 0 -7 5 -4 10 3 6 8 10 11 10 2 0 4 -4 4 -10z m798 -28 c4 -25 -6 -28
-33 -9 -10 8 -15 19 -11 26 12 19 41 8 44 -17z m-863 -22 c-16 -16 -34 -30
-40 -30 -6 0 -17 -15 -23 -34 -7 -19 -20 -40 -29 -48 -15 -12 -16 -10 -9 17 4
16 12 32 17 36 5 3 7 12 5 20 -4 9 10 24 37 41 58 36 78 35 42 -2z m-187 -3
c6 -7 7 -18 3 -26 -7 -11 -11 -9 -20 7 -6 11 -11 23 -11 26 0 11 17 6 28 -7z
m1644 -44 c26 -23 22 -33 -13 -33 -19 0 -43 -10 -61 -25 -50 -42 -67 -9 -22
44 29 35 67 41 96 14z m-105 -155 c-3 -8 -6 -5 -6 6 -1 11 2 17 5 13 3 -3 4
-12 1 -19z m108 -114 c-20 -31 -43 -40 -63 -27 -27 16 -26 33 2 33 17 0 33 10
48 31 22 29 23 30 26 9 2 -11 -4 -32 -13 -46z m-1598 -100 c-3 -3 -16 -4 -29
-2 l-23 5 25 10 c23 10 41 1 27 -13z m1593 11 c-7 -8 -17 -15 -22 -15 -6 0 -5
7 2 15 7 8 17 15 22 15 6 0 5 -7 -2 -15z m140 -84 c0 -12 -20 -25 -27 -18 -7
7 6 27 18 27 5 0 9 -4 9 -9z m17 -87 c-3 -3 -12 -4 -19 -1 -8 3 -5 6 6 6 11 1
17 -2 13 -5z m-17 -24 c8 -5 12 -11 9 -14 -3 -3 -14 1 -25 9 -21 16 -8 20 16
5z m-262 -37 c-2 -5 7 -18 20 -31 27 -27 22 -37 -23 -56 -27 -12 -36 -23 -45
-58 -12 -41 -9 -104 6 -143 5 -12 4 -16 -4 -11 -14 9 -32 71 -32 113 0 17 -5
35 -11 38 -11 7 -7 77 6 108 4 9 17 17 30 17 13 0 25 7 29 15 5 15 28 22 24 8z
m59 -95 c-3 -8 -6 -5 -6 6 -1 11 2 17 5 13 3 -3 4 -12 1 -19z m19 -180 c-13
-65 -53 -97 -84 -66 -17 17 -15 25 11 32 12 3 30 19 40 36 24 40 41 39 33 -2z
m-36 -133 c-7 -9 -15 -13 -18 -10 -3 2 1 11 8 20 7 9 15 13 18 10 3 -2 -1 -11
-8 -20z m-70 -294 c13 -26 13 -31 -4 -25 -24 9 -67 -39 -81 -91 -8 -31 -15
-44 -19 -35 -36 90 -44 126 -31 139 30 30 120 38 135 12z m46 -235 c-4 -18
-16 -42 -27 -52 -18 -17 -23 -17 -46 -4 -37 21 -39 38 -6 42 21 2 32 12 46 42
17 35 20 38 29 22 5 -10 7 -32 4 -50z m-299 -103 c-2 -21 -4 -6 -4 32 0 39 2
55 4 38 2 -18 2 -50 0 -70z m123 7 c0 -5 -4 -10 -10 -10 -5 0 -10 5 -10 10 0
6 5 10 10 10 6 0 10 -4 10 -10z m260 -220 c-12 -17 -24 -29 -27 -26 -3 3 5 19
17 36 12 17 24 29 27 26 3 -3 -5 -19 -17 -36z m80 -50 c-20 -13 -63 -13 -55 0
3 6 21 10 38 10 24 0 28 -3 17 -10z m10 -165 c-7 -9 -15 -13 -17 -11 -7 7 7
26 19 26 6 0 6 -6 -2 -15z m-348 -97 c-7 -7 -12 -8 -12 -2 0 14 12 26 19 19 2
-3 -1 -11 -7 -17z m-105 -99 c3 -92 -7 -91 -27 4 -12 62 -8 91 13 85 8 -3 13
-32 14 -89z m53 72 c0 -6 -4 -13 -10 -16 -16 -10 -11 -22 13 -30 13 -4 17 -8
10 -12 -7 -2 -13 -20 -13 -38 0 -19 -4 -36 -9 -40 -11 -6 -26 118 -16 134 8
13 25 14 25 2z m246 -96 c13 -13 12 -15 -11 -21 -32 -8 -42 0 -25 21 15 19 18
19 36 0z m-154 -367 c-7 -7 -12 -8 -12 -2 0 14 12 26 19 19 2 -3 -1 -11 -7
-17z m-242 -261 c0 -33 -25 -12 -28 24 -2 32 -1 33 13 15 8 -11 15 -28 15 -39z
m503 -156 c30 -12 88 -67 80 -75 -4 -3 -17 3 -29 15 -14 13 -41 23 -68 26 -48
6 -54 11 -34 31 14 14 20 15 51 3z"/>
<path d="M7810 11609 c-207 -22 -587 -97 -780 -153 -184 -54 -313 -123 -327
-174 -8 -31 -8 -79 1 -382 7 -246 22 -507 37 -661 8 -77 8 -205 0 -463 -13
-386 -2 -773 25 -940 8 -49 14 -118 14 -152 0 -75 -19 -214 -30 -214 -4 0 -10
-44 -13 -97 -4 -54 -13 -147 -21 -208 -14 -103 -30 -498 -30 -735 0 -60 7
-148 18 -205 23 -122 13 -191 -36 -252 -91 -115 -138 -311 -104 -442 24 -95
21 -133 -24 -237 -47 -111 -46 -107 -104 -439 -94 -540 -160 -1069 -153 -1235
3 -63 7 -123 9 -132 2 -12 -14 -27 -52 -50 -73 -44 -90 -77 -105 -204 -7 -58
-16 -108 -19 -111 -3 -3 -23 9 -43 28 -21 19 -49 41 -62 49 -23 16 -24 21 -32
205 -11 268 -18 315 -133 855 -19 91 -40 211 -45 268 -6 58 -22 135 -36 176
-14 40 -25 87 -25 105 0 17 38 130 84 249 111 287 127 340 133 447 7 125 -10
187 -109 385 -98 195 -92 180 -80 180 5 0 14 -12 21 -26 18 -40 23 -24 13 41
-8 50 -7 60 9 76 49 49 67 230 31 313 -24 54 -38 63 -53 35 -9 -17 -8 -23 2
-30 12 -7 12 -12 1 -29 -7 -11 -10 -25 -7 -30 3 -5 -3 -26 -13 -47 -11 -21
-17 -44 -15 -51 3 -7 -1 -10 -11 -6 -11 4 -16 0 -16 -14 0 -12 -5 -33 -11 -49
-7 -20 -12 -24 -18 -14 -7 11 -13 10 -34 -4 -51 -33 -163 -56 -117 -24 13 9
13 10 0 7 -8 -3 -19 -14 -25 -26 -5 -12 -15 -22 -22 -22 -7 0 -25 -16 -40 -35
-15 -19 -36 -35 -46 -35 -10 0 -17 -6 -16 -12 3 -19 -22 -78 -32 -78 -5 0 -9
41 -9 90 0 82 -2 90 -19 90 -25 0 -51 -26 -51 -51 0 -10 -5 -19 -10 -19 -6 0
-14 -8 -17 -17 -4 -10 -22 -34 -40 -53 -18 -19 -31 -40 -29 -46 2 -6 -11 -17
-30 -24 -19 -8 -34 -21 -34 -29 0 -8 -12 -25 -27 -37 l-27 -21 42 -40 c24 -23
44 -53 48 -70 5 -24 10 -30 25 -26 10 3 19 1 19 -5 0 -6 12 -25 27 -42 15 -18
28 -42 28 -53 1 -11 14 -30 28 -41 14 -12 27 -34 29 -51 3 -31 -1 -29 108 -54
19 -5 49 -14 65 -21 17 -7 42 -12 56 -11 16 1 29 -4 32 -13 4 -9 17 -16 29
-16 24 0 58 -31 58 -52 0 -6 -8 -17 -17 -24 -12 -9 -14 -13 -5 -14 8 0 11 -7
7 -18 -3 -11 1 -32 10 -48 11 -22 12 -30 2 -33 -6 -2 -38 -26 -70 -53 -72 -59
-112 -81 -138 -73 -17 6 -18 4 -9 -20 9 -23 8 -26 -9 -20 -18 6 -49 -20 -38
-32 4 -3 -3 -19 -14 -34 -16 -22 -17 -27 -5 -23 9 3 16 2 16 -3 0 -10 -81 -64
-115 -78 -11 -4 -15 -9 -8 -12 6 -2 34 7 62 21 28 14 60 26 71 26 18 0 19 -3
10 -20 -6 -11 -15 -20 -21 -20 -6 0 -7 5 -4 10 10 15 -31 12 -44 -4 -16 -19
-107 -57 -123 -51 -12 4 -60 -51 -115 -132 -28 -41 -28 -43 -3 -43 11 0 20 -6
20 -14 0 -8 7 -16 15 -20 8 -3 12 -12 9 -21 -5 -11 1 -15 21 -15 22 0 25 -3
16 -14 -9 -11 -6 -15 16 -21 l28 -7 -23 -9 c-20 -8 -23 -14 -17 -39 4 -19 2
-36 -5 -45 -11 -13 -7 -15 19 -15 27 0 31 -3 31 -27 0 -26 -1 -26 -15 -7 -8
10 -15 17 -15 14 -1 -3 -3 -16 -5 -30 -9 -61 -18 -95 -27 -101 -10 -6 12 -89
24 -89 4 0 5 -14 1 -30 -4 -23 -1 -34 11 -43 16 -12 14 -17 -18 -57 -19 -24
-33 -46 -30 -49 2 -3 9 0 15 6 9 9 18 -1 34 -35 12 -26 26 -56 29 -67 7 -19 8
-19 17 -3 11 19 39 25 39 8 0 -5 11 -10 25 -10 14 0 25 -4 25 -10 0 -17 17
-11 49 16 21 17 31 21 31 12 0 -8 -18 -25 -40 -38 -22 -14 -48 -31 -58 -38
-16 -13 -15 -13 3 -7 51 18 55 18 55 -4 0 -16 6 -21 27 -21 25 0 26 -1 11 -16
-15 -16 -18 -16 -33 0 -9 9 -26 16 -37 16 l-21 0 21 -23 c13 -14 18 -27 13
-33 -5 -5 -11 -17 -13 -27 -1 -10 -6 -17 -10 -15 -3 2 -18 -8 -31 -21 -26 -23
-47 -22 -47 5 0 8 -4 14 -10 14 -5 0 -10 7 -10 15 0 9 -7 18 -15 21 -11 5 -12
10 -2 24 18 29 0 36 -27 11 -20 -19 -25 -20 -33 -8 -7 13 -12 14 -41 2 -38
-17 -49 -38 -34 -68 21 -43 43 -121 37 -135 -3 -9 -13 -12 -26 -9 -19 5 -19 4
-6 -11 9 -10 12 -25 8 -36 -5 -14 -10 -16 -15 -8 -17 29 -21 3 -21 -143 0 -85
4 -155 8 -155 5 0 0 -16 -12 -36 -19 -32 -20 -37 -6 -64 8 -16 19 -31 25 -35
14 -9 50 17 50 37 0 11 14 24 35 32 19 8 35 20 35 25 0 6 7 11 16 11 14 0 16
9 11 60 -3 34 -12 71 -20 83 -8 12 -17 40 -20 62 -2 22 -8 50 -12 63 -13 40
12 24 35 -23 12 -25 25 -45 29 -45 3 0 15 10 26 22 14 17 20 19 23 9 4 -13 -1
-19 -41 -46 -14 -9 -14 -18 -1 -80 22 -102 38 -109 30 -13 -3 43 -4 78 -1 78
2 0 12 -25 21 -56 15 -52 18 -55 41 -49 31 7 53 -10 53 -43 0 -23 -1 -24 -18
-9 -16 15 -19 15 -30 -3 -7 -11 -31 -32 -55 -47 -75 -47 -128 -97 -124 -115 3
-12 -4 -21 -24 -30 -30 -13 -40 -38 -15 -38 21 0 72 46 106 95 32 46 73 70
138 81 41 6 42 6 42 -24 0 -24 -6 -32 -32 -43 -44 -18 -88 -58 -150 -137 -53
-67 -97 -111 -110 -112 -19 -1 -29 42 -17 75 7 19 11 37 8 39 -3 3 -22 3 -42
-1 -30 -5 -37 -10 -37 -29 0 -13 -9 -28 -19 -34 -17 -9 -19 -17 -14 -65 4 -38
2 -55 -6 -55 -6 0 -11 6 -11 14 0 8 -7 16 -14 19 -8 3 -23 21 -32 39 -9 18
-37 55 -60 82 -24 26 -44 54 -44 62 0 7 -12 20 -27 28 -16 8 -53 38 -83 65
-30 28 -61 51 -67 51 -7 0 -20 15 -29 33 -31 59 -94 129 -213 234 -66 58 -90
73 -107 69 -18 -5 -21 -2 -17 12 3 12 -16 37 -56 77 -43 42 -61 68 -61 86 0
14 -5 30 -12 37 -8 8 -8 15 2 27 17 21 20 20 62 -20 40 -38 48 -42 48 -22 0 6
16 17 35 23 32 10 37 8 87 -32 115 -95 234 -97 266 -4 13 35 2 41 -13 8 -27
-62 -141 -74 -197 -22 -32 31 -52 63 -45 71 3 2 32 -9 66 -26 68 -35 111 -39
136 -14 24 24 13 80 -24 116 -35 36 -61 31 -61 -12 0 -33 -19 -81 -31 -81 -5
0 -24 34 -43 75 -35 77 -43 84 -64 63 -9 -9 -12 -8 -12 5 0 20 -11 22 -28 5
-10 -10 -15 -10 -22 2 -5 9 -5 19 1 26 7 8 -1 16 -28 27 -107 42 -131 45 -323
36 -201 -10 -212 -12 -205 -31 4 -9 -5 -13 -27 -14 -78 -2 -292 -58 -324 -85
-8 -6 -14 -22 -14 -35 0 -15 -6 -24 -15 -24 -8 0 -15 7 -15 16 0 26 -24 1 -45
-46 -19 -42 -41 -55 -29 -17 23 77 88 187 111 187 7 0 48 18 91 39 142 72 241
101 405 116 81 8 152 17 157 20 5 3 3 26 -5 53 -8 26 -15 59 -15 75 0 17 -5
27 -15 27 -8 0 -15 -4 -15 -10 0 -5 -7 -10 -15 -10 -13 0 -14 4 -5 20 8 15 7
26 -5 44 -11 17 -13 26 -5 31 13 8 13 9 33 -30 l15 -30 7 38 c4 20 11 37 17
37 20 0 48 -85 48 -152 0 -93 6 -104 35 -70 13 15 26 45 30 65 4 20 12 37 18
37 5 0 25 11 44 26 l33 25 0 -28 c-1 -15 -7 -57 -15 -93 -7 -36 -12 -67 -9
-69 2 -2 6 2 8 10 2 8 12 38 21 67 9 28 22 52 28 52 7 0 20 15 31 33 17 30 19
31 30 13 51 -85 75 -112 121 -136 63 -32 132 -34 171 -4 47 34 38 45 -14 18
-38 -20 -58 -24 -81 -19 -34 7 -85 46 -101 75 -9 17 -6 16 40 -3 36 -15 53
-18 61 -10 6 6 15 45 20 86 8 68 7 84 -13 144 -21 61 -23 65 -26 36 -2 -18 2
-41 8 -53 9 -18 7 -22 -17 -31 -37 -14 -83 -58 -83 -80 0 -10 -4 -20 -9 -23
-16 -10 -32 22 -29 56 2 27 12 39 52 66 l48 32 -31 0 c-23 0 -44 -11 -78 -42
l-46 -43 6 76 c3 42 12 90 21 107 16 30 12 60 -8 74 -23 16 -31 6 -31 -40 0
-50 -43 -202 -57 -202 -4 0 -8 27 -8 60 0 57 14 103 42 142 17 24 9 29 -58 31
-85 2 -154 -5 -154 -17 0 -6 -7 -1 -15 11 -9 13 -22 19 -34 16 -10 -3 -22 0
-25 6 -4 6 -24 11 -46 11 -39 0 -55 -16 -44 -45 5 -11 -1 -15 -24 -15 -17 0
-34 -4 -37 -10 -3 -6 4 -10 17 -10 22 -1 22 -1 4 -15 -11 -8 -35 -15 -53 -15
-18 0 -33 -4 -33 -10 0 -5 -6 -10 -12 -10 -17 0 -123 -44 -140 -57 -7 -6 -31
-14 -53 -18 -79 -13 -100 -25 -137 -76 -21 -28 -47 -78 -59 -110 -23 -62 -56
-107 -39 -52 5 15 14 55 21 88 7 33 17 65 22 70 7 7 8 6 3 -2 -4 -7 -3 -13 2
-13 5 0 13 19 19 43 34 134 73 192 149 215 l35 10 -7 -44 -6 -45 28 7 c16 3
39 13 52 21 18 11 20 17 12 33 -6 11 -17 20 -25 20 -8 0 -15 4 -15 9 0 12 41
21 66 15 25 -7 74 31 74 57 0 10 5 19 10 19 6 0 10 -18 10 -40 0 -51 15 -52
90 -7 36 22 75 36 110 40 60 7 147 33 169 51 22 17 42 74 35 101 -3 13 -15 27
-25 30 -14 5 -18 12 -13 31 6 24 6 24 -72 24 -88 0 -94 3 -112 45 -13 28 -12
31 20 57 l33 27 -35 0 c-41 0 -134 -38 -168 -68 -12 -11 -26 -21 -30 -22 -4
-1 -38 -11 -77 -22 -173 -49 -196 -54 -201 -45 -3 5 -14 2 -25 -8 -18 -16 -18
-18 -2 -30 10 -7 21 -10 25 -8 11 7 10 -14 -2 -37 -6 -10 -17 -19 -25 -19 -8
0 -15 -6 -15 -12 0 -7 -14 -33 -30 -58 -45 -68 -87 -184 -114 -322 -28 -139
-44 -292 -27 -268 5 8 12 12 15 9 6 -6 -71 -121 -101 -152 -10 -11 -17 -23
-15 -28 1 -5 -8 -14 -21 -20 -29 -13 -97 -115 -142 -212 -46 -101 -107 -268
-100 -275 6 -6 43 27 197 177 54 52 100 92 104 88 4 -4 -44 -55 -107 -114
-182 -172 -287 -280 -398 -408 -146 -168 -270 -293 -312 -315 -38 -20 -66 -60
-32 -44 110 48 330 97 513 114 63 6 217 15 341 19 124 4 231 11 236 14 6 4 22
-2 35 -13 32 -25 52 -29 186 -39 73 -5 117 -12 122 -20 5 -9 10 -10 14 -2 9
14 46 14 46 0 0 -8 4 -8 14 0 19 16 45 3 52 -25 7 -27 51 -34 60 -9 7 18 -10
35 -60 58 -48 22 -43 29 9 15 22 -5 84 -14 138 -19 121 -10 161 -21 260 -67
66 -30 82 -34 98 -24 16 11 19 9 19 -8 0 -24 37 -28 46 -6 7 19 -13 56 -30 56
-7 0 -39 31 -71 70 -51 61 -135 137 -202 181 -19 13 -20 16 -6 34 11 14 17 16
20 8 3 -7 10 -13 18 -13 7 0 18 -7 25 -15 21 -25 31 -17 25 19 -4 20 -2 36 4
40 6 4 11 2 11 -3 0 -6 24 -23 53 -37 79 -40 211 -133 317 -224 154 -133 250
-201 270 -195 13 4 30 -10 65 -55 49 -61 83 -80 148 -80 l28 0 -3 68 -3 67
-31 -3 c-38 -4 -60 18 -45 46 6 11 8 22 4 25 -12 13 9 57 60 128 30 41 56 82
60 91 9 25 86 78 113 78 25 0 54 -24 54 -45 0 -8 -10 -17 -22 -20 -13 -4 -38
-18 -56 -32 -41 -31 -127 -146 -112 -151 16 -6 36 15 72 69 18 28 39 49 49 49
10 0 21 5 24 10 8 13 72 13 80 0 3 -5 -1 -10 -10 -10 -8 0 -21 -11 -27 -25
-13 -28 -4 -45 14 -27 7 7 22 12 35 12 19 0 23 -5 23 -28 0 -33 -29 -81 -30
-49 0 10 -4 15 -10 12 -5 -3 -11 -41 -11 -83 -3 -132 -13 -230 -22 -204 -5 12
-13 22 -18 22 -12 0 -12 -52 1 -84 11 -31 30 -34 30 -6 0 11 -5 20 -12 20 -6
0 -2 10 10 23 12 13 22 29 22 35 0 16 78 72 100 72 9 0 29 14 46 31 32 34 148
129 158 129 3 0 3 -7 0 -15 -12 -31 6 -13 26 25 23 45 26 46 51 24 24 -22 51
-6 74 45 20 45 26 49 46 25 11 -13 10 -17 -4 -25 -9 -6 -17 -17 -17 -24 0 -8
-4 -15 -10 -15 -5 0 -22 -19 -36 -42 -15 -23 -61 -76 -102 -118 -41 -41 -87
-98 -104 -127 -28 -50 -48 -68 -204 -181 -40 -29 -77 -59 -84 -67 -25 -30 14
-16 90 33 106 68 108 69 86 44 -10 -11 -53 -44 -95 -73 -129 -88 -163 -130
-68 -84 51 25 51 25 26 3 -15 -13 -44 -36 -65 -52 -52 -41 -27 -44 48 -7 77
39 89 33 17 -8 -69 -39 -130 -90 -108 -91 9 0 28 9 42 20 34 27 41 25 20 -6
-17 -26 -17 -27 3 -16 11 6 26 22 34 36 12 24 41 37 39 19 0 -5 -24 -37 -54
-73 -29 -36 -52 -67 -49 -69 2 -2 36 25 76 60 115 101 120 101 25 0 -95 -100
-112 -140 -22 -51 30 30 57 52 60 49 2 -3 -19 -32 -48 -64 -61 -69 -50 -65 54
22 43 35 79 63 82 63 3 0 5 -10 5 -22 -4 -62 2 -88 20 -88 21 -1 -95 -109
-118 -110 -8 0 -30 -20 -48 -44 -18 -24 -48 -54 -67 -67 -29 -20 -34 -30 -37
-71 -2 -26 1 -48 7 -48 5 0 4 -5 -3 -12 -17 -17 -15 -25 9 -31 12 -3 18 -10
14 -16 -3 -6 1 -14 9 -17 19 -7 22 -65 6 -95 -8 -15 -7 -19 4 -19 12 0 9 -13
-14 -59 -21 -41 -29 -68 -25 -84 4 -14 2 -28 -4 -31 -6 -4 -11 -2 -11 3 0 23
-16 10 -28 -22 -12 -34 -97 -104 -142 -117 -14 -4 -61 -23 -105 -41 -116 -47
-313 -68 -644 -69 -140 0 -252 -2 -249 -5 2 -3 40 -10 83 -15 74 -9 94 -15 84
-24 -10 -10 -183 -25 -193 -17 -6 5 -96 11 -201 14 -118 3 -263 15 -383 31
-251 34 -296 53 -241 102 29 27 94 28 509 10 422 -18 698 -20 789 -5 74 11
177 52 148 57 -14 3 -16 7 -6 18 14 18 5 44 -17 44 -9 0 -27 9 -41 20 -14 11
-34 20 -44 20 -24 0 -48 36 -55 82 -4 21 -11 35 -15 32 -5 -3 -7 -9 -4 -14 3
-4 -2 -13 -10 -20 -8 -7 -15 -21 -15 -32 0 -16 -33 -93 -46 -107 -9 -10 -43
33 -49 61 -8 34 -29 46 -50 28 -13 -11 -15 -7 -15 28 0 23 -6 45 -15 52 -14
12 -13 16 6 37 13 12 30 23 40 23 24 0 49 10 49 20 0 5 -19 11 -42 15 -72 11
-78 14 -78 43 0 40 11 72 24 71 25 -3 54 13 49 27 -7 20 18 49 28 32 5 -8 10
-3 14 14 4 15 4 31 1 36 -3 5 1 15 9 22 10 9 15 33 15 79 1 53 3 62 12 47 10
-18 11 -18 24 5 18 32 17 44 -1 29 -9 -7 -15 -8 -15 -2 0 12 -98 27 -108 17
-4 -3 4 -15 18 -25 33 -26 9 -25 -41 0 -28 15 -44 18 -56 11 -14 -7 -21 -3
-35 20 -18 30 -19 30 -101 27 l-82 -3 0 -33 c0 -47 -22 -57 -62 -26 -42 32
-53 30 -53 -6 0 -16 -4 -30 -10 -30 -5 0 -10 -17 -10 -37 l0 -36 -25 23 c-30
28 -32 13 -5 -37 11 -21 20 -42 20 -48 0 -6 7 -21 16 -33 l16 -23 15 20 c21
31 33 26 33 -13 0 -39 14 -53 35 -36 21 17 18 0 -4 -30 -17 -22 -19 -39 -16
-155 4 -108 2 -124 -7 -92 -6 20 -17 37 -25 37 -7 0 -13 11 -13 24 0 13 -12
40 -26 61 -25 37 -25 38 -6 59 29 32 36 47 18 40 -20 -8 -20 0 0 20 14 15 13
17 -10 26 -18 7 -26 17 -26 34 0 15 -7 27 -19 31 -10 3 -21 14 -24 25 -5 21
-25 31 -99 51 -34 9 -48 19 -51 34 -2 11 -5 4 -6 -16 0 -19 -7 -41 -13 -48
-11 -10 -10 -15 5 -25 24 -18 21 -35 -7 -46 -27 -10 -35 -37 -39 -122 -2 -52
-15 -60 -51 -33 -11 8 -30 15 -43 15 -14 0 -23 6 -23 15 0 8 -4 15 -10 15 -5
0 -10 -4 -10 -9 0 -18 -40 -22 -62 -7 -34 24 -46 20 -63 -20 -17 -42 -35 -37
-35 11 0 30 -7 39 -61 77 -33 24 -73 50 -89 58 -16 8 -30 21 -30 28 0 8 -6 12
-12 9 -7 -2 -13 -18 -13 -35 0 -40 -13 -52 -31 -28 -20 28 -19 80 1 72 15 -5
18 -1 41 64 3 10 7 11 12 3 4 -6 24 -14 44 -18 34 -6 38 -5 43 18 4 14 2 34
-4 45 -6 12 -11 36 -12 54 -1 46 -11 67 -39 81 -14 7 -30 23 -36 36 -7 12 -14
19 -17 14 -3 -5 3 -24 14 -41 20 -34 26 -82 9 -82 -5 0 -10 5 -10 10 0 6 -9
10 -20 10 -12 0 -20 7 -20 18 0 9 -11 34 -25 54 -14 20 -25 42 -25 47 0 6 -9
11 -20 11 -24 0 -42 31 -29 51 8 12 10 12 18 0 5 -7 14 -10 20 -6 17 10 -5 35
-30 35 -21 0 -25 21 -9 49 13 25 1 91 -17 91 -10 0 -13 11 -11 42 3 39 7 45
43 62 51 23 57 34 34 57 -23 23 -24 47 -2 71 11 12 12 18 3 18 -7 0 -10 8 -7
19 3 13 -2 21 -15 25 -21 5 -21 15 -3 59 7 16 3 17 -36 11 -24 -4 -50 -12 -57
-18 -16 -16 -6 -43 19 -51 20 -7 26 -30 9 -40 -6 -3 -17 1 -26 9 -8 9 -20 16
-25 16 -5 0 -9 9 -9 20 0 18 -2 18 -45 6 l-45 -14 0 33 c0 19 4 37 10 40 6 3
7 -1 4 -9 -10 -25 13 -18 35 10 26 34 27 80 2 93 -10 6 -37 13 -59 17 -36 6
-46 3 -74 -21 -52 -43 -55 -55 -23 -81 35 -27 25 -44 -25 -44 -54 0 -90 16
-90 39 0 10 -9 21 -20 24 -12 3 -20 14 -20 26 0 28 -24 27 -64 -4 -31 -24 -36
-25 -84 -13 -43 9 -57 9 -89 -5 -21 -8 -58 -18 -82 -22 -24 -3 -62 -17 -86
-30 -48 -29 -63 -32 -45 -10 7 9 10 18 8 21 -3 3 -19 -12 -36 -32 -25 -30 -34
-35 -45 -26 -11 9 -18 7 -35 -11 -12 -12 -45 -35 -74 -51 -64 -34 -154 -134
-209 -231 -49 -89 -99 -216 -99 -254 0 -16 -5 -31 -10 -33 -16 -5 -59 -161
-75 -273 -20 -140 -19 -235 6 -330 31 -119 32 -122 19 -130 -7 -4 -16 5 -23
24 -21 56 -27 33 -20 -78 7 -125 -5 -173 -41 -170 -58 4 -59 2 -30 -46 22 -38
24 -48 13 -61 -7 -8 -13 -44 -14 -82 -1 -51 -5 -67 -16 -67 -18 0 -39 -39 -39
-73 0 -25 0 -25 -21 -6 -13 12 -18 25 -15 40 5 18 2 21 -14 17 -14 -4 -19 -11
-15 -24 5 -15 -1 -18 -37 -21 -33 -2 -44 -7 -46 -22 -3 -14 0 -17 12 -13 25
10 19 -9 -10 -28 -24 -16 -26 -16 -38 1 -7 9 -19 15 -27 12 -10 -3 -6 -12 14
-32 43 -43 27 -41 -33 4 -55 41 -70 47 -70 30 0 -5 7 -10 15 -10 20 0 19 -12
-4 -41 -27 -35 -35 -67 -32 -126 1 -32 -2 -53 -8 -53 -6 0 -11 5 -11 10 0 6
-4 10 -10 10 -15 0 -12 -58 3 -63 6 -2 10 -6 7 -9 -10 -10 -200 -87 -410 -167
-260 -100 -530 -210 -548 -224 -7 -5 -15 -27 -19 -49 -6 -43 -21 -55 -50 -40
-10 6 -38 11 -63 13 -42 4 -45 2 -45 -21 0 -29 31 -46 167 -91 136 -44 163
-41 448 47 419 129 506 146 517 104 6 -21 23 -28 23 -9 0 18 59 2 102 -26 21
-14 44 -25 51 -25 7 0 24 -11 36 -24 20 -21 32 -24 88 -24 36 0 70 -5 76 -11
6 -6 7 -11 3 -11 -5 0 9 -12 30 -27 30 -21 51 -27 95 -27 31 -1 63 -7 72 -14
28 -24 206 -35 562 -36 262 -1 402 4 555 17 113 10 212 20 220 22 8 3 87 14
174 25 87 11 173 24 190 29 37 12 406 88 491 101 143 23 184 9 425 -142 144
-91 239 -142 247 -134 3 2 -60 56 -139 119 -163 130 -208 170 -208 186 0 16
30 13 79 -9 54 -25 55 -25 37 3 -8 12 -17 38 -21 57 -4 19 -21 58 -36 86 -16
28 -26 54 -22 57 11 11 52 8 81 -7 60 -29 148 -3 372 110 177 89 354 202 430
273 l65 61 -88 -40 c-118 -53 -322 -118 -427 -135 -47 -7 -145 -16 -218 -18
-115 -4 -134 -3 -140 11 -3 9 0 18 6 20 7 2 12 17 12 33 0 19 5 29 15 29 8 0
15 -9 15 -20 0 -28 37 -26 46 2 6 20 8 20 19 5 7 -10 26 -17 46 -17 59 0 139
12 139 21 0 5 -6 9 -14 9 -8 0 -18 10 -21 21 -8 24 7 38 40 39 11 1 36 9 55
20 l35 19 -67 1 c-75 0 -118 -12 -118 -34 0 -8 -5 -16 -12 -18 -12 -4 -135 9
-155 17 -21 7 -15 25 8 25 11 0 39 11 63 24 36 20 60 24 167 28 110 4 239 28
239 45 0 4 -160 -1 -337 -12 -35 -2 -63 -2 -63 0 0 17 65 30 180 35 104 5 160
13 242 36 112 30 143 51 61 40 -195 -25 -324 -36 -423 -36 -108 1 -113 2 -78
14 26 9 66 12 125 9 91 -6 262 20 353 52 24 8 53 15 66 15 13 0 24 5 24 10 0
6 11 10 24 10 14 0 28 5 32 12 5 8 -4 9 -32 4 -21 -4 -64 -9 -94 -12 -30 -3
-68 -10 -83 -16 -15 -6 -30 -8 -33 -5 -9 8 56 34 107 42 24 4 49 11 55 16 6 5
44 20 84 34 92 31 215 97 257 138 18 17 31 32 29 34 -2 2 -28 -11 -57 -30 -66
-42 -143 -81 -201 -102 -52 -20 -238 -58 -245 -51 -3 3 10 14 28 26 24 15 44
19 68 16 18 -3 31 -2 27 1 -4 4 17 13 45 20 109 28 296 130 320 175 12 23 1
19 -33 -10 -30 -26 -20 -2 22 50 22 28 40 61 40 74 0 14 15 35 40 57 57 49 73
94 65 180 -4 39 -18 102 -31 141 -13 38 -24 77 -24 87 0 19 44 31 251 69 240
43 281 61 379 167 93 100 157 202 165 263 4 27 11 52 16 56 5 3 9 0 9 -5 0 -6
9 -11 20 -11 28 0 80 -28 80 -43 0 -8 2 -9 8 -1 5 8 20 8 57 -2 28 -7 75 -18
105 -23 30 -5 98 -20 150 -31 52 -12 102 -22 110 -23 8 0 25 -6 39 -13 15 -8
29 -10 35 -4 5 5 15 5 25 0 9 -5 59 -19 111 -31 52 -12 99 -26 105 -30 5 -5
21 -9 35 -9 14 0 31 -5 38 -12 9 -9 12 -8 12 7 0 16 2 17 18 3 9 -9 33 -21 52
-27 42 -14 66 -33 105 -85 30 -39 30 -40 27 -155 -2 -63 -1 -113 2 -110 3 2
21 59 41 124 49 164 44 154 58 128 9 -17 16 -19 29 -12 12 7 25 6 40 -2 13 -7
37 -12 53 -10 17 1 59 -7 95 -18 36 -11 86 -25 112 -32 26 -7 44 -17 42 -21
-3 -4 4 -8 15 -8 11 0 22 -4 25 -9 3 -4 25 -11 48 -14 74 -11 212 -43 235 -55
13 -7 38 -10 61 -6 25 4 51 0 76 -10 21 -9 51 -16 67 -16 33 0 192 -34 234
-50 39 -15 474 -110 775 -169 271 -53 401 -71 730 -98 263 -21 817 -24 975 -4
162 19 389 66 475 96 41 15 104 37 140 50 87 30 209 84 242 107 14 10 30 18
35 18 5 0 25 16 44 36 18 20 47 42 62 51 45 23 73 113 47 153 -11 18 -66 7
-202 -44 -54 -20 -98 -33 -98 -30 0 3 13 10 29 15 22 8 28 16 27 35 -1 28 -11
31 -24 8 -8 -15 -70 -33 -117 -34 -16 0 -13 6 15 30 19 16 38 29 43 30 18 1
87 54 87 67 0 8 8 13 18 12 29 -3 35 1 24 14 -19 23 13 57 52 57 25 0 38 7 50
25 9 14 25 25 37 25 11 0 22 7 25 15 3 8 25 25 48 39 79 46 72 59 -9 19 -85
-43 -203 -89 -210 -82 -2 3 39 31 92 64 53 32 91 61 85 63 -7 2 -33 -8 -58
-23 -48 -28 -147 -65 -173 -65 -9 1 -3 8 14 17 93 49 366 215 362 220 -3 3
-48 -20 -99 -50 -132 -77 -298 -148 -298 -127 0 5 65 48 145 96 80 47 145 88
145 91 0 2 -42 -18 -94 -46 -92 -49 -97 -51 -175 -51 -67 0 -81 3 -81 16 0 24
19 54 35 54 8 0 15 5 15 10 0 17 -33 11 -79 -16 -25 -14 -67 -30 -93 -35 -26
-6 -48 -15 -48 -20 0 -5 -7 -9 -15 -9 -9 0 -18 -6 -20 -12 -4 -9 -33 -13 -90
-14 -50 -1 -92 -7 -100 -14 -12 -10 -16 -9 -21 5 -4 9 -3 20 2 25 5 4 86 38
179 75 193 77 237 100 233 124 -5 26 36 53 257 164 272 137 279 142 265 167
-8 15 -6 24 12 43 13 13 28 32 35 43 12 19 12 19 12 -1 0 -11 -6 -31 -14 -45
-16 -29 -19 -50 -6 -50 10 0 41 105 41 138 0 16 -4 20 -16 15 -14 -5 -16 -2
-10 20 5 20 1 32 -15 48 l-20 20 -6 -21 c-4 -14 -11 -19 -23 -15 -18 6 -43
-12 -53 -37 -4 -9 -14 -4 -31 15 -27 29 -36 33 -36 17 0 -6 -10 -24 -21 -39
-12 -16 -18 -34 -15 -40 4 -7 -1 -11 -13 -11 -11 0 -23 -4 -26 -10 -10 -17
-21 -11 -34 16 -11 25 -11 26 14 20 29 -7 29 -6 13 29 -14 30 -24 32 -31 5 -3
-13 -14 -20 -30 -20 -14 0 -33 -7 -42 -16 -13 -14 -28 -16 -83 -10 -37 4 -82
9 -99 12 -26 5 -33 3 -33 -9 0 -24 -40 -47 -82 -47 -27 0 -38 4 -38 15 0 17
-36 39 -50 30 -11 -7 -50 25 -50 42 0 18 10 16 35 -7 l22 -20 -2 20 c-1 12
-15 36 -31 54 -16 18 -35 42 -42 52 -11 16 -12 16 -8 2 8 -26 -13 -22 -23 4
-12 32 -46 60 -94 78 -36 13 -43 20 -47 50 -4 29 -10 36 -32 38 -16 2 -28 7
-28 11 0 10 58 55 83 64 9 3 17 12 17 18 0 11 -16 9 -67 -6 -20 -6 -23 -4 -23
17 0 14 -11 35 -25 48 l-26 24 22 8 c13 5 27 4 35 -3 9 -7 14 -7 14 -1 0 14
-21 29 -52 37 -33 8 -54 30 -38 40 12 7 14 42 2 49 -15 9 -52 -6 -52 -20 0 -8
-5 -14 -10 -14 -6 0 -10 16 -8 37 l3 38 -59 3 c-46 2 -62 -1 -68 -12 -5 -9
-16 -16 -24 -16 -12 0 -14 7 -10 27 l6 28 -57 -2 c-32 -1 -65 -3 -73 -4 -29
-4 -75 1 -90 11 -13 9 -11 14 14 36 15 14 26 27 23 31 -9 8 -88 -8 -82 -17 8
-12 -98 -19 -114 -7 -17 14 -111 13 -138 -1 -16 -9 -28 -8 -50 3 -15 8 -33 15
-39 15 -6 0 -19 9 -28 19 -20 22 -62 32 -131 31 -64 -1 -85 -8 -85 -27 0 -8
-6 -13 -13 -10 -7 3 -21 -1 -32 -9 -10 -8 -31 -14 -47 -14 -18 0 -28 -5 -28
-15 0 -8 -4 -15 -9 -15 -5 0 -11 7 -15 15 -9 25 -77 13 -98 -18 -3 -6 -20 -10
-37 -10 -17 0 -31 -4 -31 -9 0 -4 -9 -8 -20 -8 -11 0 -48 -20 -83 -45 -59 -44
-70 -47 -108 -31 -12 5 -19 0 -24 -16 -7 -21 -8 -20 -12 12 -4 34 -23 68 -23
42 0 -9 -8 -8 -30 3 -16 8 -37 15 -46 15 -9 0 -44 -29 -77 -65 -38 -41 -69
-65 -82 -65 -31 0 -36 9 -18 36 20 32 -1 33 -34 2 -34 -32 -29 -6 13 69 23 42
34 73 31 89 -3 16 0 24 9 24 9 0 14 11 14 29 0 16 6 31 15 35 8 3 15 14 15 24
0 10 14 31 31 48 34 31 101 126 113 159 6 16 1 14 -23 -9 -28 -27 -42 -27 -23
0 14 20 77 61 88 57 6 -2 14 4 18 14 3 10 19 36 35 58 49 65 91 156 103 222
l11 61 -50 100 -51 99 -26 -24 c-14 -13 -33 -38 -42 -56 -9 -18 -30 -47 -47
-64 -30 -32 -30 -33 -12 -53 10 -11 23 -20 29 -20 6 0 3 7 -6 16 -15 16 -14
20 20 60 29 36 43 44 69 44 25 0 36 -6 47 -27 28 -56 36 -103 24 -157 -19 -91
-43 -137 -122 -232 -32 -38 -48 -39 -23 -1 9 14 15 38 15 55 -1 25 -6 31 -29
34 -20 3 -29 0 -29 -9 0 -7 -4 -13 -10 -13 -5 0 -10 14 -10 30 0 29 -1 30 -50
30 -53 0 -65 15 -34 41 14 11 14 13 0 21 -23 13 -20 22 14 56 25 26 30 38 29
79 0 26 -3 42 -6 36 -6 -16 -47 -17 -74 -3 -13 7 -19 7 -19 0 0 -5 -4 -10 -9
-10 -6 0 -11 16 -13 36 l-3 35 -32 -42 c-50 -65 -41 -140 18 -161 8 -3 11 -9
7 -13 -10 -11 -63 25 -82 55 -24 42 -20 68 19 107 42 42 43 54 10 79 -33 25
-32 32 10 50 34 14 35 16 29 53 -4 24 -2 41 5 45 6 4 11 0 11 -9 0 -9 5 -13
10 -10 6 3 10 -3 10 -15 0 -12 5 -18 10 -15 15 9 12 41 -5 58 -13 13 -13 16 0
27 8 7 15 17 15 23 0 5 -9 2 -20 -8 -14 -13 -24 -15 -31 -8 -26 26 25 62 71
50 14 -4 20 0 20 12 0 9 5 22 11 28 8 8 8 17 0 32 -23 42 5 19 53 -44 79 -106
87 -79 9 32 -49 70 -60 93 -44 93 5 0 38 -36 72 -80 34 -44 64 -80 67 -80 2 0
2 27 0 60 -3 43 -10 66 -25 82 -24 26 -66 128 -52 128 5 0 33 -21 63 -47 41
-36 58 -59 67 -91 6 -23 15 -44 18 -47 4 -2 22 5 40 16 l33 20 -30 52 c-40 72
-44 92 -20 114 11 10 26 30 34 45 13 25 13 28 -2 28 -9 0 -31 -9 -48 -19 -24
-15 -45 -19 -91 -16 -64 3 -84 -6 -195 -89 -30 -23 -70 -48 -88 -55 -18 -8
-44 -28 -57 -44 -21 -28 -27 -30 -52 -21 -38 13 -42 47 -8 70 14 9 33 30 41
45 8 16 21 29 29 29 15 0 58 50 50 58 -3 3 -13 -2 -23 -11 -25 -23 -47 -21
-64 4 -12 19 -28 23 -118 30 -70 6 -106 6 -108 -1 -2 -5 -14 -10 -28 -10 -18
0 -27 9 -39 36 -13 32 -18 35 -47 32 -29 -3 -33 0 -36 25 -3 26 11 37 23 17 7
-11 65 -13 91 -3 13 5 3 11 -36 20 -30 8 -65 16 -77 19 -32 9 -67 -30 -58 -64
4 -18 3 -24 -4 -17 -5 6 -11 26 -13 45 -2 27 -7 34 -20 32 -12 -2 -18 4 -18
17 0 12 -13 26 -37 38 -24 11 -44 31 -54 53 -9 19 -21 35 -26 35 -5 0 -26 14
-45 31 -27 24 -33 35 -26 47 5 10 5 23 -2 34 -5 10 -15 31 -20 47 -9 23 -13
26 -25 16 -13 -11 -15 -7 -15 23 0 45 15 86 35 93 24 9 73 -15 96 -48 19 -26
20 -33 8 -78 l-13 -49 35 -36 c32 -34 129 -93 129 -79 0 4 11 -5 25 -20 28
-30 30 -31 90 -11 33 12 50 13 64 5 27 -14 41 -13 41 3 0 8 8 21 18 31 28 24
21 73 -17 136 -45 73 -135 176 -183 208 -40 26 -43 38 -15 56 13 8 22 6 39
-12 13 -12 44 -39 71 -59 33 -25 47 -43 47 -59 0 -13 4 -24 9 -24 5 0 12 -13
16 -30 3 -16 16 -41 28 -56 12 -15 42 -56 67 -93 55 -81 77 -86 175 -42 52 24
65 34 61 48 -46 163 -44 157 -94 196 -27 20 -60 37 -74 37 -13 0 -44 6 -69 14
-24 7 -69 21 -99 30 -31 8 -65 22 -75 30 -19 14 -19 15 -1 35 18 20 18 20 -37
45 -31 13 -58 32 -61 43 -7 23 -72 57 -81 43 -9 -15 -25 -12 -25 5 0 19 -37
38 -61 32 -13 -4 -19 0 -20 11 0 15 -1 16 -11 1 -10 -14 -14 -14 -49 3 -21 10
-58 18 -83 18 -53 0 -75 23 -49 52 15 17 15 18 -3 19 -27 2 -27 2 -51 -6 -22
-6 -23 -4 -23 44 0 44 -3 50 -22 53 -15 2 -24 11 -26 26 -2 12 -9 22 -17 22
-7 0 -20 15 -29 34 -8 18 -22 39 -31 46 -8 7 -15 19 -15 26 0 8 -7 14 -16 14
-8 0 -13 4 -9 10 3 5 -3 18 -15 30 -11 11 -20 27 -20 35 0 8 -9 19 -20 25 -24
13 -27 35 -4 26 12 -5 15 -2 9 11 -8 22 -8 20 -6 63 1 33 4 36 57 53 43 15 58
16 70 7 22 -19 17 -71 -12 -113 -32 -48 -29 -63 37 -162 69 -103 185 -187 324
-235 68 -23 95 -26 77 -8 -7 7 -12 27 -12 46 0 33 -1 34 -35 30 l-34 -4 24 32
c20 27 25 44 25 95 0 77 20 68 31 -13 6 -50 28 -116 60 -183 13 -27 20 -30 64
-33 27 -2 52 -7 55 -11 11 -16 182 -62 209 -56 23 5 28 1 38 -25 12 -31 43
-42 43 -15 0 8 5 15 11 15 8 0 10 12 6 35 l-6 35 42 -1 c73 -1 110 -20 127
-67 9 -22 18 -43 21 -47 4 -3 21 13 39 35 20 25 29 45 24 50 -5 5 -45 17 -89
26 -43 9 -112 32 -153 50 -41 19 -82 34 -92 34 -18 0 -133 71 -144 89 -4 6
-16 11 -26 11 -10 0 -23 6 -27 13 -4 8 -27 26 -50 42 -24 15 -43 31 -43 35 0
4 -13 13 -29 19 -25 11 -96 74 -211 187 -19 19 -41 34 -47 34 -7 0 -13 5 -13
10 0 6 4 10 9 10 6 0 -3 15 -20 32 -16 18 -32 41 -35 50 -3 10 -11 18 -19 18
-14 0 -25 30 -25 70 0 19 -2 22 -10 10 -14 -22 -24 12 -16 58 6 41 -13 82 -40
82 -8 0 -14 5 -14 11 0 6 -14 27 -31 47 -18 20 -41 55 -51 79 -13 30 -25 43
-36 41 -23 -4 -28 36 -8 67 22 33 51 40 92 20 31 -14 34 -20 34 -58 0 -51 70
-189 156 -308 74 -102 99 -126 117 -110 12 9 18 6 32 -15 12 -18 20 -23 28
-15 7 7 4 15 -10 28 -35 32 -106 152 -99 169 4 11 2 15 -8 11 -14 -5 -30 24
-27 49 1 6 -10 19 -24 28 -14 9 -23 22 -19 27 3 6 -3 17 -15 25 -12 8 -21 20
-21 25 0 15 -50 118 -61 124 -5 4 -9 15 -9 26 0 10 -4 19 -10 19 -5 0 -10 7
-10 15 0 8 -5 15 -10 15 -6 0 -10 6 -8 13 2 6 -7 26 -19 43 -22 31 -50 98
-105 254 -33 92 -44 111 -61 107 -7 -1 -13 13 -14 33 -2 32 -2 33 9 12 11 -22
11 -22 46 19 22 25 41 39 51 36 45 -13 46 -12 43 13 -3 21 -1 23 10 12 8 -8
15 -49 19 -105 7 -107 31 -188 101 -337 54 -116 139 -270 150 -270 3 0 9 44
12 98 4 53 11 133 16 177 6 50 6 95 0 120 -5 22 -10 164 -10 315 0 151 -5 446
-10 655 -6 209 -15 666 -20 1015 -12 750 -19 855 -72 1000 -43 120 -134 242
-212 283 -36 19 -59 21 -191 23 -82 1 -188 -2 -235 -7z m304 -485 c24 -9 9
-24 -24 -24 -31 0 -48 15 -28 23 19 8 34 8 52 1z m96 -13 c12 -24 13 -88 1
-96 -7 -4 -51 90 -51 110 0 14 41 2 50 -14z m-60 -51 c7 -14 3 -87 -15 -266
-32 -316 -32 -302 3 -297 26 4 26 4 8 -11 -11 -9 -23 -16 -26 -16 -12 0 -30
-50 -30 -80 0 -35 -1 -34 64 -15 27 8 55 15 63 15 20 0 16 -26 -10 -56 -18
-21 -35 -28 -75 -32 -29 -2 -52 -6 -52 -7 0 -2 -18 -93 -40 -202 -75 -370
-183 -799 -420 -1683 -336 -1253 -480 -1949 -580 -2813 -16 -142 -34 -267 -40
-277 -7 -14 -7 -20 0 -20 5 0 10 -10 10 -22 0 -18 -2 -20 -9 -9 -7 11 -10 4
-13 -24 -2 -30 -8 -41 -23 -44 -17 -3 -18 -1 -6 13 7 9 9 16 4 16 -5 0 -10 6
-11 13 0 6 -8 48 -16 92 -14 72 -14 81 0 92 17 13 10 38 -8 27 -7 -5 -9 7 -5
37 4 24 12 91 18 149 8 73 16 108 26 114 12 7 13 10 2 16 -13 8 -5 98 22 250
5 30 16 105 23 165 50 396 333 1735 486 2300 249 916 310 1160 391 1555 61
301 112 706 90 719 -8 5 -8 29 -1 87 15 123 30 162 74 200 45 38 80 43 96 14z
m-170 -20 c0 -5 -5 -10 -11 -10 -5 0 -7 5 -4 10 3 6 8 10 11 10 2 0 4 -4 4
-10z m206 -56 c-3 -9 -6 -18 -6 -20 0 -2 -4 -4 -9 -4 -5 0 -7 9 -4 20 3 11 10
20 15 20 6 0 7 -7 4 -16z m92 -512 c4 -37 -13 -43 -22 -9 -9 35 -7 49 7 45 6
-3 13 -19 15 -36z m-60 -207 c-36 -33 -58 -44 -58 -27 0 7 80 62 90 62 3 0
-12 -16 -32 -35z m96 -397 c9 -34 8 -38 -9 -38 -10 0 -15 10 -15 30 0 35 15
40 24 8z m-149 2 c-3 -5 -15 -15 -26 -21 -19 -10 -20 -9 -9 10 6 12 18 21 26
21 8 0 12 -4 9 -10z m81 -51 c19 -38 12 -73 -23 -105 -36 -33 -85 -32 -112 2
-12 15 -21 36 -21 47 0 19 2 18 30 -8 l30 -29 0 40 c0 80 63 115 96 53z m-11
-174 c-21 -13 -42 -22 -45 -19 -9 10 41 44 64 44 17 -1 13 -6 -19 -25z m-60
-374 c3 -5 1 -12 -5 -16 -5 -3 -10 -1 -10 6 0 8 -5 7 -17 -2 -16 -13 -17 -12
-4 4 15 19 27 22 36 8z m125 -35 c0 -14 -4 -28 -10 -31 -6 -4 -10 7 -10 24 0
17 5 31 10 31 6 0 10 -11 10 -24z m-68 -13 c26 -23 22 -66 -9 -102 -23 -26
-35 -31 -73 -31 -54 0 -70 13 -70 56 0 44 15 51 30 14 14 -35 30 -39 30 -10 0
26 26 77 42 83 22 9 31 7 50 -10z m78 -592 c0 -49 -20 -26 -26 30 -5 41 -4 43
10 25 9 -11 16 -36 16 -55z m-130 40 c0 -5 -9 -11 -20 -14 -22 -6 -28 8 -7 16
19 8 27 8 27 -2z m15 -571 c-3 -5 -11 -10 -16 -10 -6 0 -7 5 -4 10 3 6 11 10
16 10 6 0 7 -4 4 -10z m-62 -110 c3 -11 1 -23 -4 -26 -5 -3 -9 -1 -9 5 0 5 -3
16 -6 25 -3 9 -2 16 4 16 5 0 12 -9 15 -20z m197 -250 c0 -5 -2 -10 -4 -10 -3
0 -8 5 -11 10 -3 6 -1 10 4 10 6 0 11 -4 11 -10z m228 -112 c7 -7 12 -16 12
-20 0 -15 -15 -8 -28 12 -13 22 -3 27 16 8z m-217 -97 c16 -30 16 -37 4 -61
-7 -14 -20 -32 -29 -39 -13 -11 -16 -7 -21 26 -4 21 -9 46 -12 55 -3 13 0 16
12 12 13 -5 15 -2 9 21 -10 38 14 29 37 -14z m749 -589 c0 -10 -21 -32 -30
-32 -4 0 -7 13 -7 29 0 26 3 29 19 20 10 -5 18 -13 18 -17z m-808 -72 c-6 -9
-22 26 -22 51 0 45 15 43 20 -3 3 -23 4 -45 2 -48z m93 -30 c0 -22 -29 -18
-33 3 -3 14 1 18 15 15 10 -2 18 -10 18 -18z m82 -2 c-3 -8 -6 -5 -6 6 -1 11
2 17 5 13 3 -3 4 -12 1 -19z m-3128 -74 c-10 -23 -13 -25 -16 -11 -3 10 1 25
8 33 17 21 21 11 8 -22z m3316 -4 c8 -13 -5 -13 -25 0 -13 8 -13 10 2 10 9 0
20 -4 23 -10z m71 -25 c10 -8 14 -15 8 -15 -5 0 -19 7 -30 15 -10 8 -14 15 -8
15 5 0 19 -7 30 -15z m-3407 -87 c-12 -20 -14 -21 -17 -5 -2 10 2 25 9 34 18
21 23 0 8 -29z m3448 -22 c-9 -26 -27 -15 -27 16 1 31 1 32 15 13 9 -10 14
-24 12 -29z m-45 -63 c39 -35 11 -103 -43 -103 l-29 0 37 33 c25 23 34 39 30
51 -10 25 -35 31 -56 12 -30 -27 -57 -16 -29 12 17 17 68 15 90 -5z m-3002
-53 c0 -5 -2 -10 -4 -10 -3 0 -8 5 -11 10 -3 6 -1 10 4 10 6 0 11 -4 11 -10z
m-10 -170 c0 -5 -2 -10 -4 -10 -3 0 -8 5 -11 10 -3 6 -1 10 4 10 6 0 11 -4 11
-10z m-60 -149 c0 -5 -7 -14 -15 -21 -12 -10 -15 -10 -15 2 0 8 3 18 7 21 9
10 23 9 23 -2z m3530 -211 c0 -5 -4 -10 -10 -10 -5 0 -10 5 -10 10 0 6 5 10
10 10 6 0 10 -4 10 -10z m-5213 -52 c-3 -8 -6 -5 -6 6 -1 11 2 17 5 13 3 -3 4
-12 1 -19z m-23 -7 c8 -13 -3 -38 -19 -45 -20 -7 -49 18 -42 38 7 17 52 22 61
7z m1506 -16 c0 -8 -4 -15 -10 -15 -5 0 -10 7 -10 15 0 8 5 15 10 15 6 0 10
-7 10 -15z m-1290 -46 c18 -5 8 -8 -36 -8 -39 -1 -67 4 -80 14 -17 14 -14 15
36 9 30 -4 66 -11 80 -15z m1164 -10 c-3 -5 -10 -7 -15 -3 -5 3 -7 10 -3 15 3
5 10 7 15 3 5 -3 7 -10 3 -15z m-1134 -49 c0 -5 -4 -10 -10 -10 -5 0 -10 5
-10 10 0 6 5 10 10 10 6 0 10 -4 10 -10z m996 -15 c-11 -8 -25 -15 -30 -15 -6
0 -2 7 8 15 11 8 25 15 30 15 6 0 2 -7 -8 -15z m481 -130 c15 -33 27 -64 28
-70 0 -5 7 -25 14 -43 10 -25 11 -36 2 -45 -8 -8 -11 -6 -11 9 0 11 -4 24 -9
30 -5 5 -23 52 -40 105 -30 93 -39 135 -21 94 5 -11 22 -47 37 -80z m3376 36
c-5 -46 -8 -52 -27 -49 -31 4 -31 40 0 77 14 18 28 30 30 28 2 -2 1 -27 -3
-56z m205 51 c12 -8 18 -71 10 -106 -4 -18 -42 -45 -63 -45 -5 -1 -16 3 -23 8
-11 7 -7 17 17 51 31 42 40 80 21 80 -5 0 -10 5 -10 10 0 12 30 13 48 2z m-82
-78 c-4 -9 -9 -15 -11 -12 -3 3 -3 13 1 22 4 9 9 15 11 12 3 -3 3 -13 -1 -22z
m134 -24 c0 -11 -4 -20 -10 -20 -5 0 -10 9 -10 20 0 11 5 20 10 20 6 0 10 -9
10 -20z m-3560 -80 c0 -5 -5 -10 -11 -10 -5 0 -7 5 -4 10 3 6 8 10 11 10 2 0
4 -4 4 -10z m-1685 -39 c7 -12 -12 -24 -25 -16 -11 7 -4 25 10 25 5 0 11 -4
15 -9z m1709 -63 c15 -33 43 -135 47 -173 1 -11 -1 -28 -6 -38 -4 -9 -5 -31
-3 -47 6 -39 -13 -34 -24 6 -40 143 -68 266 -63 274 12 20 34 10 49 -22z
m-1694 -38 c0 -5 -4 -10 -10 -10 -5 0 -10 5 -10 10 0 6 5 10 10 10 6 0 10 -4
10 -10z m-55 -10 c7 -11 -55 -140 -67 -140 -4 0 -16 13 -28 30 -24 34 -41 108
-22 96 7 -4 12 -16 12 -28 0 -18 5 -16 40 16 42 38 55 43 65 26z m1258 -14 c4
-9 -4 -16 -21 -19 -33 -6 -39 -2 -22 18 16 19 36 19 43 1z m-1513 -30 c0 -14
-56 -33 -67 -23 -5 5 45 36 60 37 4 0 7 -6 7 -14z m110 0 c0 -3 -4 -8 -10 -11
-5 -3 -10 -1 -10 4 0 6 5 11 10 11 6 0 10 -2 10 -4z m1430 -36 c0 -5 -4 -10
-10 -10 -5 0 -10 5 -10 10 0 6 5 10 10 10 6 0 10 -4 10 -10z m-50 -10 c0 -5
-5 -10 -11 -10 -5 0 -7 5 -4 10 3 6 8 10 11 10 2 0 4 -4 4 -10z m-1416 -75
c28 -36 27 -67 -1 -44 -13 12 -43 62 -43 74 0 15 21 1 44 -30z m3183 -47 c-3
-7 -5 -2 -5 12 0 14 2 19 5 13 2 -7 2 -19 0 -25z m-53 -23 c3 -8 1 -15 -4 -15
-6 0 -10 7 -10 15 0 8 2 15 4 15 2 0 6 -7 10 -15z m30 -64 c-3 -34 -10 -61
-15 -61 -12 0 -29 35 -29 60 0 20 40 74 48 65 2 -1 0 -30 -4 -64z m-3334 47
c0 -17 -18 -44 -24 -37 -8 7 5 49 15 49 5 0 9 -6 9 -12z m3357 -140 c-2 -24
-4 -7 -4 37 0 44 2 63 4 43 2 -21 2 -57 0 -80z m-1747 92 c0 -5 -4 -10 -10
-10 -5 0 -10 5 -10 10 0 6 5 10 10 10 6 0 10 -4 10 -10z m-1870 -35 c-13 -14
-26 -23 -28 -20 -3 3 5 16 18 30 13 14 26 23 28 20 3 -3 -5 -16 -18 -30z m59
-80 c16 -9 3 -25 -20 -25 -20 0 -25 23 -12 56 6 16 7 15 14 -3 4 -12 12 -24
18 -28z m1911 20 c0 -8 -4 -15 -10 -15 -5 0 -7 7 -4 15 4 8 8 15 10 15 2 0 4
-7 4 -15z m1628 -36 c-2 -19 -7 -34 -13 -34 -5 0 -16 -4 -22 -8 -18 -11 -16 9
5 54 20 43 35 37 30 -12z m2582 36 c0 -8 -4 -15 -10 -15 -5 0 -10 7 -10 15 0
8 5 15 10 15 6 0 10 -7 10 -15z m-6220 1 c0 -2 -7 -9 -15 -16 -13 -11 -14 -10
-9 4 5 14 24 23 24 12z m850 -75 c0 -17 -12 -41 -21 -41 -10 0 -12 33 -2 43 9
10 23 9 23 -2z m1278 -18 c-4 -22 -22 -20 -26 1 -2 10 3 16 13 16 10 0 15 -7
13 -17z m1542 -39 c0 -8 -6 -11 -16 -7 -14 5 -16 1 -12 -20 3 -15 1 -27 -3
-27 -5 0 -9 18 -9 39 0 34 3 38 20 34 11 -3 20 -11 20 -19z m-3260 -88 c-40
-113 -66 -172 -79 -180 -19 -12 -12 22 18 81 16 32 35 83 42 113 14 59 26 83
40 75 4 -3 -5 -43 -21 -89z m-35 67 c-4 -10 -17 -43 -28 -73 -11 -30 -37 -75
-56 -100 -20 -24 -36 -47 -36 -50 0 -3 -8 -16 -17 -30 -9 -14 -22 -45 -29 -70
-7 -25 -17 -49 -24 -55 -6 -5 -21 -31 -34 -58 -41 -84 -4 -101 39 -18 18 37
60 81 60 65 0 -6 -19 -41 -43 -80 -24 -38 -42 -75 -40 -80 4 -13 -35 -50 -43
-41 -4 4 -1 13 5 21 16 19 6 36 -20 36 -20 0 -89 -61 -89 -80 0 -5 -4 -10 -10
-10 -29 0 9 77 115 230 84 122 146 241 170 326 9 32 18 65 20 72 3 6 18 12 36
12 26 0 30 -3 24 -17z m3205 -39 c0 -8 -4 -12 -10 -9 -5 3 -10 10 -10 16 0 5
5 9 10 9 6 0 10 -7 10 -16z m33 -44 c3 -11 1 -23 -4 -26 -5 -3 -9 6 -9 20 0
31 6 34 13 6z m67 -17 c0 -28 -3 -34 -10 -23 -13 20 -13 60 0 60 6 0 10 -17
10 -37z m-26 -45 c4 -24 3 -38 -4 -38 -5 0 -10 19 -10 42 0 49 5 47 14 -4z
m-2857 16 c-3 -3 -12 -4 -19 -1 -8 3 -5 6 6 6 11 1 17 -2 13 -5z m2822 -21 c0
-25 -1 -25 -8 -8 -5 11 -7 23 -4 28 8 14 13 7 12 -20z m-3524 -48 c0 -16 -6
-30 -12 -32 -9 -3 -13 7 -13 32 0 25 4 35 13 33 6 -3 12 -17 12 -33z m3491 8
c-10 -10 -19 5 -10 18 6 11 8 11 12 0 2 -7 1 -15 -2 -18z m104 13 c0 -3 -4 -8
-10 -11 -5 -3 -10 -1 -10 4 0 6 5 11 10 11 6 0 10 -2 10 -4z m-20 -59 c0 -5
-4 -5 -10 -2 -5 3 -10 14 -10 23 0 15 2 15 10 2 5 -8 10 -19 10 -23z m-3619
-20 c-8 -8 -11 -5 -11 9 0 27 14 41 18 19 2 -9 -1 -22 -7 -28z m7369 -47 c0
-5 -4 -10 -10 -10 -5 0 -10 5 -10 10 0 6 5 10 10 10 6 0 10 -4 10 -10z m-55
-10 c-3 -5 -13 -10 -21 -10 -8 0 -12 5 -9 10 3 6 13 10 21 10 8 0 12 -4 9 -10z
m-7075 -21 c-7 -11 -14 -18 -17 -15 -8 8 5 36 17 36 7 0 7 -6 0 -21z m1484 5
c9 -24 7 -28 -9 -14 -17 14 -20 30 -6 30 5 0 12 -7 15 -16z m5506 -8 c0 -3 -4
-8 -10 -11 -5 -3 -10 -1 -10 4 0 6 5 11 10 11 6 0 10 -2 10 -4z m-7309 -26
c-24 -21 -61 -27 -61 -11 0 10 45 29 70 30 10 0 7 -6 -9 -19z m7539 0 c0 -5
-4 -10 -10 -10 -5 0 -10 5 -10 10 0 6 5 10 10 10 6 0 10 -4 10 -10z m-6523
-60 c-3 -13 3 -24 20 -35 14 -9 22 -19 19 -22 -7 -7 -76 45 -76 57 0 5 8 11
18 13 9 3 19 5 21 6 2 0 1 -8 -2 -19z m5253 10 c0 -5 -4 -10 -9 -10 -6 0 -13
5 -16 10 -3 6 1 10 9 10 9 0 16 -4 16 -10z m-4244 -18 c18 -15 19 -20 8 -42
-10 -18 -14 -21 -18 -10 -3 8 -10 27 -15 43 -12 31 -5 34 25 9z m5684 -24 c0
-19 1 -19 30 2 25 18 30 19 30 6 0 -21 29 -20 52 1 17 15 19 15 32 -2 7 -10
19 -15 27 -13 23 9 67 -39 61 -67 -2 -14 -8 -22 -13 -19 -5 3 -33 0 -63 -7
-41 -9 -58 -9 -76 1 -21 11 -21 13 -7 22 28 15 20 25 -24 31 -28 4 -52 16 -75
38 -42 41 -43 51 -4 38 20 -7 30 -18 30 -31z m-1750 -42 c0 -3 -4 -8 -10 -11
-5 -3 -10 -1 -10 4 0 6 5 11 10 11 6 0 10 -2 10 -4z m-4820 -32 c0 -16 -16
-19 -25 -4 -8 13 4 32 16 25 5 -4 9 -13 9 -21z m4845 -14 c3 -5 1 -10 -4 -10
-6 0 -11 5 -11 10 0 6 2 10 4 10 3 0 8 -4 11 -10z m-3868 -52 c-3 -8 -6 -5 -6
6 -1 11 2 17 5 13 3 -3 4 -12 1 -19z m-1477 -3 c-13 -16 -40 -20 -40 -7 0 14
12 22 33 22 16 0 17 -3 7 -15z m60 5 c0 -5 -4 -10 -10 -10 -5 0 -10 5 -10 10
0 6 5 10 10 10 6 0 10 -4 10 -10z m5180 0 c0 -5 -2 -10 -4 -10 -3 0 -8 5 -11
10 -3 6 -1 10 4 10 6 0 11 -4 11 -10z m-4000 -29 c0 -12 -20 -25 -27 -18 -7 7
6 27 18 27 5 0 9 -4 9 -9z m3980 -1 c0 -5 -4 -10 -10 -10 -5 0 -10 5 -10 10 0
6 5 10 10 10 6 0 10 -4 10 -10z m-5170 -35 c-15 -16 -27 -22 -33 -16 -17 17 1
41 29 41 l27 0 -23 -25z m-700 -5 c0 -5 -4 -10 -10 -10 -5 0 -10 5 -10 10 0 6
5 10 10 10 6 0 10 -4 10 -10z m800 -9 c0 -12 -20 -25 -27 -18 -7 7 6 27 18 27
5 0 9 -4 9 -9z m-200 -16 c-7 -9 -15 -13 -17 -11 -7 7 7 26 19 26 6 0 6 -6 -2
-15z m7282 -5 c7 -11 24 -20 38 -21 14 0 20 -3 13 -5 -8 -4 -9 -13 -3 -30 8
-20 6 -24 -8 -24 -14 0 -51 49 -70 93 -8 16 19 6 30 -13z m-5722 -5 c33 -17
40 -35 13 -35 -18 0 -53 28 -53 42 0 11 7 10 40 -7z m80 -49 c0 -3 -4 -8 -10
-11 -5 -3 -10 -1 -10 4 0 6 5 11 10 11 6 0 10 -2 10 -4z m5780 -26 c0 -5 -4
-10 -9 -10 -6 0 -13 5 -16 10 -3 6 1 10 9 10 9 0 16 -4 16 -10z m-5862 -21
c-2 -6 -8 -10 -13 -10 -5 0 -11 4 -13 10 -2 6 4 11 13 11 9 0 15 -5 13 -11z
m3541 -109 c-16 -133 -59 -277 -59 -198 0 13 -5 29 -12 36 -8 8 -8 15 2 27 8
10 14 43 14 83 1 54 4 68 19 74 10 5 17 18 17 36 0 16 3 32 7 36 14 14 20 -30
12 -94z m2396 90 c3 -5 -3 -10 -14 -10 -11 0 -23 5 -26 10 -3 6 3 10 14 10 11
0 23 -4 26 -10z m-2275 -30 c0 -5 -4 -10 -10 -10 -5 0 -10 5 -10 10 0 6 5 10
10 10 6 0 10 -4 10 -10z m-4775 -40 c3 -5 2 -10 -4 -10 -5 0 -13 5 -16 10 -3
6 -2 10 4 10 5 0 13 -4 16 -10z m1156 -27 c-9 -16 -10 -14 -11 12 0 21 3 26
11 18 8 -8 8 -16 0 -30z m3586 31 c-3 -3 -12 -4 -19 -1 -8 3 -5 6 6 6 11 1 17
-2 13 -5z m23 -34 c0 -5 -4 -10 -10 -10 -5 0 -10 5 -10 10 0 6 5 10 10 10 6 0
10 -4 10 -10z m2720 -120 c0 -5 -4 -10 -10 -10 -5 0 -10 5 -10 10 0 6 5 10 10
10 6 0 10 -4 10 -10z m-6750 -19 c14 -27 13 -31 -9 -31 -24 0 -33 13 -25 34 8
21 21 20 34 -3z m6840 9 c0 -5 -5 -10 -11 -10 -5 0 -7 5 -4 10 3 6 8 10 11 10
2 0 4 -4 4 -10z m-70 -82 c0 -16 -3 -19 -11 -11 -6 6 -8 16 -5 22 11 17 16 13
16 -11z m-6762 0 c-6 -18 -28 -21 -28 -4 0 9 7 16 16 16 9 0 14 -5 12 -12z
m6482 2 c0 -5 -5 -10 -11 -10 -5 0 -7 5 -4 10 3 6 8 10 11 10 2 0 4 -4 4 -10z
m-2623 -42 c-3 -8 -6 -5 -6 6 -1 11 2 17 5 13 3 -3 4 -12 1 -19z m-6078 -54
c-15 -19 -69 -47 -76 -41 -10 11 18 46 39 50 48 9 52 8 37 -9z m2603 -6 c-7
-7 -12 -8 -12 -2 0 14 12 26 19 19 2 -3 -1 -11 -7 -17z m-2837 -69 c0 -8 -12
-15 -27 -17 -31 -4 -35 -14 -13 -32 14 -12 31 -11 83 6 21 6 23 4 20 -22 -2
-23 -9 -30 -31 -32 -15 -2 -33 -12 -40 -23 -6 -10 -18 -19 -25 -19 -15 0 -71
-38 -88 -60 -20 -25 -44 5 -44 55 0 53 8 75 26 75 7 0 36 20 65 46 50 44 74
52 74 23z m152 -64 c-7 -16 -37 -21 -37 -5 0 10 32 31 39 25 2 -2 1 -11 -2
-20z m-607 1 c0 -3 -4 -8 -10 -11 -5 -3 -10 -1 -10 4 0 6 5 11 10 11 6 0 10
-2 10 -4z m3535 -32 c-32 -27 -85 -58 -85 -50 0 6 102 76 110 76 3 -1 -8 -12
-25 -26z m-3625 -34 c0 -5 -5 -10 -11 -10 -5 0 -7 5 -4 10 3 6 8 10 11 10 2 0
4 -4 4 -10z m980 1 c0 -5 -6 -16 -14 -24 -9 -9 -12 -24 -9 -37 4 -17 2 -21 -8
-18 -18 6 -24 55 -8 74 13 16 39 19 39 5z m-171 -34 c19 -21 20 -26 7 -36 -18
-15 -34 -7 -46 23 -15 41 5 48 39 13z m-126 -13 c41 -14 63 -34 38 -34 -5 0
-11 -10 -13 -22 -2 -15 -9 -22 -19 -20 -9 1 -22 -4 -28 -12 -7 -8 -19 -12 -27
-9 -10 4 -14 -3 -14 -24 0 -16 -7 -38 -16 -49 -14 -17 -15 -13 -11 61 3 75 18
125 36 125 4 0 28 -7 54 -16z m2907 1 c-7 -9 -15 -13 -19 -10 -3 3 1 10 9 15
21 14 24 12 10 -5z m-55 -35 c-3 -5 -20 -19 -38 -30 l-32 -22 35 31 c35 32 46
38 35 21z m-2535 -15 c0 -8 -4 -15 -10 -15 -5 0 -10 7 -10 15 0 8 5 15 10 15
6 0 10 -7 10 -15z m-154 -32 c-10 -10 -19 5 -10 18 6 11 8 11 12 0 2 -7 1 -15
-2 -18z m70 -52 c10 -33 12 -56 7 -60 -6 -3 -15 -16 -22 -28 -6 -13 -16 -23
-22 -23 -6 0 -8 4 -4 9 3 5 0 13 -6 17 -7 4 -24 -6 -41 -25 -36 -41 -47 -34
-19 12 22 35 15 57 -19 57 -12 1 -11 3 3 11 17 10 17 12 2 35 -9 14 -13 29
-10 34 11 18 22 10 29 -21 7 -37 19 -31 47 23 24 47 30 43 55 -41z m24 75 c0
-3 -4 -8 -10 -11 -5 -3 -10 -1 -10 4 0 6 5 11 10 11 6 0 10 -2 10 -4z m-690
-45 c0 -11 -39 -21 -45 -11 -2 4 -2 10 2 14 10 9 43 7 43 -3z m3260 -11 c0 -5
-5 -10 -11 -10 -5 0 -7 5 -4 10 3 6 8 10 11 10 2 0 4 -4 4 -10z m-2784 -51 c8
-9 11 -19 7 -23 -4 -4 -1 -11 6 -15 20 -13 28 -111 10 -122 -22 -14 -25 -11
-39 32 -8 22 -17 42 -21 45 -4 2 -28 -27 -54 -66 -25 -38 -51 -73 -57 -76 -17
-10 -38 26 -38 63 0 62 56 137 84 114 11 -10 18 -7 35 10 12 13 21 29 21 37 0
7 5 23 12 35 12 21 12 21 16 2 2 -11 10 -27 18 -36z m8512 -41 c-2 -6 -10 -14
-16 -16 -7 -2 -10 2 -6 12 7 18 28 22 22 4z m-8688 -28 c0 -9 -32 -30 -46 -30
-4 0 1 9 11 20 19 21 35 26 35 10z m410 -32 c0 -24 -4 -49 -8 -56 -11 -17 -42
-4 -42 17 0 16 36 81 45 81 3 0 5 -19 5 -42z m8725 32 c-3 -5 -11 -10 -16 -10
-6 0 -7 5 -4 10 3 6 11 10 16 10 6 0 7 -4 4 -10z m-525 -10 c0 -5 -4 -10 -10
-10 -5 0 -10 5 -10 10 0 6 5 10 10 10 6 0 10 -4 10 -10z m-50 -31 c0 -5 -4 -9
-10 -9 -5 0 -10 7 -10 16 0 8 5 12 10 9 6 -3 10 -10 10 -16z m-70 -24 c-7 -9
-15 -13 -17 -11 -7 7 7 26 19 26 6 0 6 -6 -2 -15z m-8386 -49 c-3 -14 -10 -26
-15 -26 -12 0 -11 4 3 35 14 31 21 26 12 -9z m8306 30 c0 -3 -4 -8 -10 -11 -5
-3 -10 -1 -10 4 0 6 5 11 10 11 6 0 10 -2 10 -4z m-8450 -36 c0 -5 -4 -10 -10
-10 -5 0 -10 5 -10 10 0 6 5 10 10 10 6 0 10 -4 10 -10z m470 -40 c0 -5 -4
-10 -10 -10 -5 0 -10 5 -10 10 0 6 5 10 10 10 6 0 10 -4 10 -10z m2600 -4 c0
-2 -8 -10 -17 -17 -16 -13 -17 -12 -4 4 13 16 21 21 21 13z m-2550 -66 c0 -5
-4 -10 -10 -10 -5 0 -10 5 -10 10 0 6 5 10 10 10 6 0 10 -4 10 -10z m-60 -20
c0 -5 -4 -10 -10 -10 -5 0 -10 5 -10 10 0 6 5 10 10 10 6 0 10 -4 10 -10z
m163 -110 c3 -11 1 -18 -4 -14 -5 3 -9 12 -9 20 0 20 7 17 13 -6z m893 -88 c5
-51 4 -72 -5 -72 -6 0 -11 1 -11 3 0 2 -5 29 -11 60 -10 59 -4 106 12 90 5 -5
11 -41 15 -81z m7589 59 c-3 -6 -11 -11 -17 -11 -6 0 -6 6 2 15 14 17 26 13
15 -4z m-7526 -252 c-33 -24 -38 -14 -8 17 15 16 25 21 28 13 2 -6 -7 -20 -20
-30z m60 -36 c1 -17 6 -33 11 -35 9 -3 39 -98 42 -135 1 -7 6 -13 12 -13 5 0
-2 -13 -17 -28 -19 -19 -24 -31 -17 -38 7 -7 8 -19 1 -37 -14 -36 -31 -34 -31
3 0 16 -6 33 -14 37 -20 11 -46 79 -46 119 0 22 -7 40 -20 51 -26 23 -25 39 4
58 12 8 32 31 42 50 16 29 20 32 26 18 3 -10 7 -32 7 -50z m1106 -321 c-8 -8
-25 10 -19 20 4 6 9 5 15 -3 4 -7 6 -15 4 -17z m-2455 -31 c0 -12 -28 -22 -34
-12 -3 5 -3 11 1 15 9 9 33 7 33 -3z m145 -1 c3 -5 -1 -10 -10 -10 -9 0 -13 5
-10 10 3 6 8 10 10 10 2 0 7 -4 10 -10z m75 -10 c0 -5 -4 -10 -10 -10 -5 0
-10 5 -10 10 0 6 5 10 10 10 6 0 10 -4 10 -10z m140 -10 c26 -16 4 -21 -49 -9
-28 6 -51 13 -51 15 0 8 85 3 100 -6z m1955 -95 c-22 -14 -76 -39 -120 -55
-44 -17 -93 -37 -109 -45 -16 -9 -31 -13 -34 -10 -13 13 30 37 119 69 53 18
109 41 125 49 47 26 63 19 19 -8z m-1285 -91 c187 -24 161 -36 -63 -28 -179 6
-197 6 -197 -9 0 -20 11 -22 28 -5 10 10 14 10 21 0 4 -8 51 -19 112 -27 156
-21 193 -27 209 -36 20 -11 -33 -11 -265 1 -104 6 -230 17 -280 25 -49 9 -98
16 -107 17 -10 1 -18 6 -18 10 0 4 54 8 121 8 112 0 159 9 159 29 0 5 -20 12
-45 15 -25 4 -45 12 -45 18 0 14 204 4 370 -18z m996 -3 c-5 -8 -114 -24 -265
-37 -54 -5 -72 -4 -67 5 4 6 31 11 59 12 29 0 90 7 137 14 105 16 143 18 136
6z m-803 -28 c-7 -2 -19 -2 -25 0 -7 3 -2 5 12 5 14 0 19 -2 13 -5z m672 -63
c-11 -5 -27 -9 -35 -9 -13 -1 -13 0 0 9 8 5 24 9 35 9 l20 0 -20 -9z m-125
-10 c-20 -13 -70 -13 -70 0 0 6 19 10 43 10 31 0 38 -3 27 -10z m60 6 c0 -3
-4 -8 -10 -11 -5 -3 -10 -1 -10 4 0 6 5 11 10 11 6 0 10 -2 10 -4z m-1079 -41
c183 -18 219 -24 219 -36 0 -17 -145 -9 -294 15 -233 39 -199 48 75 21z m349
-32 l55 -8 -80 -6 c-86 -6 -90 -6 -80 10 7 13 30 14 105 4z m480 0 c0 -5 -7
-16 -14 -25 -11 -15 -18 -16 -45 -7 -41 15 -40 30 4 27 19 -1 37 1 41 5 9 9
14 9 14 0z m106 -3 c8 0 14 -4 14 -10 0 -5 -20 -10 -45 -10 -25 0 -45 4 -45 9
0 11 30 20 48 15 8 -2 20 -4 28 -4z m82 -6 c-9 -9 -21 -13 -27 -9 -16 10 -3
25 22 25 20 0 20 -1 5 -16z m-908 -45 c151 -11 279 -25 284 -30 13 -12 -25
-11 -250 1 -197 12 -360 32 -376 48 -7 7 2 9 28 6 22 -2 163 -13 314 -25z
m-75 -74 c171 -21 214 -37 80 -30 -106 5 -210 21 -235 36 -22 13 3 12 155 -6z
m255 -24 c0 -6 -4 -13 -10 -16 -5 -3 -10 1 -10 9 0 9 5 16 10 16 6 0 10 -4 10
-9z m64 3 c22 -8 10 -24 -19 -24 -27 0 -42 16 -23 23 19 8 24 8 42 1z m91 -14
c-3 -5 -10 -10 -16 -10 -5 0 -9 5 -9 10 0 6 7 10 16 10 8 0 12 -4 9 -10z m65
0 c0 -5 -7 -10 -15 -10 -8 0 -15 5 -15 10 0 6 7 10 15 10 8 0 15 -4 15 -10z
m223 -11 c-7 -7 -21 -7 -44 -1 l-34 10 45 1 c31 1 41 -2 33 -10z m-769 -29 c7
-7 2 -10 -14 -10 -39 0 -70 11 -64 22 7 11 63 3 78 -12z m-2390 -15 c7 -18
-10 -65 -23 -65 -18 0 -23 21 -11 51 14 32 25 37 34 14z m36 5 c0 -5 -4 -10
-10 -10 -5 0 -10 5 -10 10 0 6 5 10 10 10 6 0 10 -4 10 -10z m192 -2 c-17 -8
-26 -8 -34 0 -9 9 -4 12 23 11 32 0 33 -1 11 -11z m2241 5 c-7 -2 -19 -2 -25
0 -7 3 -2 5 12 5 14 0 19 -2 13 -5z m-2193 -68 c-7 -9 -15 -13 -17 -11 -7 7 7
26 19 26 6 0 6 -6 -2 -15z m2557 -21 c-3 -3 -12 -4 -19 -1 -8 3 -5 6 6 6 11 1
17 -2 13 -5z m-2557 -14 c0 -5 -5 -10 -11 -10 -5 0 -7 5 -4 10 3 6 8 10 11 10
2 0 4 -4 4 -10z m-250 -10 c0 -5 -2 -10 -4 -10 -3 0 -8 5 -11 10 -3 6 -1 10 4
10 6 0 11 -4 11 -10z m-1009 -510 c5 0 9 -11 9 -25 0 -14 -4 -25 -10 -25 -5 0
-10 8 -10 18 0 14 -3 13 -18 -6 -20 -25 -32 -20 -32 14 0 23 16 35 38 28 8 -2
18 -4 23 -4z m59 -10 c0 -5 -4 -10 -10 -10 -5 0 -10 5 -10 10 0 6 5 10 10 10
6 0 10 -4 10 -10z"/>
<path d="M8155 9171 c-6 -11 9 -23 19 -14 9 9 7 23 -3 23 -6 0 -12 -4 -16 -9z"/>
<path d="M8155 9110 c3 -5 13 -10 21 -10 8 0 12 5 9 10 -3 6 -13 10 -21 10 -8
0 -12 -4 -9 -10z"/>
<path d="M6957 5099 c4 -13 8 -18 11 -10 2 7 -1 18 -6 23 -8 8 -9 4 -5 -13z"/>
<path d="M11200 4360 c0 -5 5 -10 10 -10 6 0 10 5 10 10 0 6 -4 10 -10 10 -5
0 -10 -4 -10 -10z"/>
<path d="M11150 4341 c0 -5 5 -13 10 -16 6 -3 10 -2 10 4 0 5 -4 13 -10 16 -5
3 -10 2 -10 -4z"/>
<path d="M2670 3105 c-13 -14 -19 -25 -14 -25 12 0 26 11 43 33 21 26 -2 20
-29 -8z"/>
<path d="M2665 3030 c-3 -5 -1 -10 4 -10 6 0 11 5 11 10 0 6 -2 10 -4 10 -3 0
-8 -4 -11 -10z"/>
<path d="M2804 11383 c-16 -17 -16 -18 -1 -21 16 -3 15 -6 -2 -28 -24 -31 -36
-100 -23 -134 9 -24 11 -22 22 22 18 71 35 78 36 15 1 -59 8 -104 17 -114 4
-3 7 -13 7 -22 0 -9 6 -28 14 -42 7 -14 19 -49 26 -78 13 -56 22 -63 37 -28
10 22 11 22 46 -16 35 -36 63 -105 54 -130 -4 -11 -21 22 -40 76 -4 9 -15 17
-26 17 -11 0 -22 6 -24 13 -3 6 -6 -15 -6 -48 -1 -52 -6 -69 -36 -115 -37 -59
-44 -80 -20 -60 20 16 19 14 -9 -61 -13 -35 -26 -86 -29 -114 l-6 -50 39 80
c38 79 81 131 110 135 33 5 40 0 34 -24 -3 -14 4 -49 20 -88 14 -36 26 -69 26
-74 0 -5 10 -42 21 -82 21 -70 23 -72 41 -55 32 29 41 5 30 -83 -10 -86 2
-164 27 -172 12 -4 13 11 8 89 -4 67 -3 87 4 69 6 -14 13 -69 16 -122 5 -84 4
-98 -10 -104 -14 -5 -15 -10 -5 -27 6 -12 15 -40 18 -62 4 -22 11 -53 15 -70
7 -28 6 -29 -7 -11 -26 33 -39 11 -22 -36 8 -24 31 -108 51 -189 19 -81 39
-153 44 -160 19 -31 15 3 -12 111 -31 122 -35 180 -9 126 l15 -29 5 24 c6 26
27 34 48 20 11 -6 10 -18 -4 -60 -15 -46 -15 -61 -4 -128 l13 -76 19 23 c14
17 18 33 14 55 -3 16 -8 55 -11 85 -5 46 -4 52 6 35 7 -10 14 -63 17 -117 4
-85 2 -101 -13 -118 -15 -17 -16 -24 -7 -46 7 -13 12 -28 12 -31 0 -12 -43 33
-57 60 -8 16 -17 27 -19 24 -3 -3 13 -81 35 -174 49 -205 96 -447 112 -568 6
-49 14 -108 16 -130 3 -22 10 -43 16 -47 8 -4 6 -9 -6 -13 -15 -6 -15 -10 -2
-35 8 -16 17 -50 20 -77 8 -71 26 -134 42 -140 7 -3 21 -2 31 2 15 7 14 9 -8
15 -25 8 -25 8 -2 9 14 1 37 16 55 36 17 19 42 43 56 52 l26 17 -27 -36 c-30
-39 -52 -88 -40 -88 4 0 7 -78 7 -172 l0 -173 31 -66 c20 -41 55 -90 93 -129
33 -35 61 -67 61 -71 0 -12 21 -22 49 -23 19 -1 27 -7 29 -23 2 -13 7 -23 12
-23 11 0 30 89 30 140 0 39 -13 60 -25 40 -12 -19 -26 -11 -15 9 5 11 7 26 4
35 -3 8 3 28 14 43 10 15 25 45 31 66 11 33 10 42 -10 85 -13 26 -24 65 -25
87 -3 60 -21 144 -37 169 -8 11 -24 73 -36 136 -28 151 -38 185 -56 200 -8 7
-15 20 -15 30 0 9 -9 25 -20 35 -24 22 -26 37 -4 28 14 -5 15 -1 9 28 -3 19
-17 57 -31 85 -13 28 -24 59 -24 69 0 11 -12 31 -26 46 l-26 27 22 12 c15 8
19 15 12 22 -6 6 -8 17 -5 26 4 9 -4 24 -22 38 -24 19 -26 26 -20 50 8 27 9
27 12 7 7 -40 23 -24 23 22 0 28 -14 83 -34 138 -19 51 -42 125 -50 166 -9 40
-20 78 -25 85 -14 17 -33 127 -38 216 -3 50 -9 79 -19 86 -16 12 -52 106 -65
169 -22 109 -50 200 -64 208 -10 5 -13 13 -7 24 5 8 5 33 0 57 -4 22 -13 70
-18 106 -6 36 -18 79 -27 97 -9 18 -14 35 -10 39 9 10 46 -37 47 -59 0 -25 30
-127 37 -127 6 0 5 5 -28 143 -22 96 -35 118 -41 75 -3 -21 -4 -21 -20 -4 -22
21 -23 65 -3 72 26 10 16 43 -26 86 -38 39 -39 43 -23 55 17 12 17 13 -2 13
-16 0 -20 7 -20 38 -1 40 -57 212 -80 250 -30 46 -31 19 -3 -55 16 -43 29 -82
28 -88 0 -15 -59 106 -59 124 0 9 -7 25 -15 35 -19 25 -19 36 1 36 21 0 12 27
-35 110 -23 40 -44 66 -56 68 -41 6 -75 25 -90 49 -26 39 -8 40 30 3 25 -24
35 -29 35 -18 0 27 -58 68 -96 68 -19 0 -34 5 -34 10 0 17 -47 11 -66 -7z
m406 -538 c0 -8 -4 -15 -10 -15 -5 0 -10 7 -10 15 0 8 5 15 10 15 6 0 10 -7
10 -15z m100 -200 c0 -8 -4 -15 -10 -15 -5 0 -10 7 -10 15 0 8 5 15 10 15 6 0
10 -7 10 -15z m-40 -15 c0 -5 -5 -10 -11 -10 -5 0 -7 5 -4 10 3 6 8 10 11 10
2 0 4 -4 4 -10z m52 -245 c3 -14 1 -25 -3 -25 -5 0 -9 11 -9 25 0 14 2 25 4
25 2 0 6 -11 8 -25z m-64 -590 c7 -14 12 -31 12 -38 -1 -17 -40 32 -40 49 0
23 16 16 28 -11z m332 -458 c0 -18 -2 -19 -10 -7 -13 20 -13 43 0 35 6 -3 10
-16 10 -28z m-210 -19 c0 -5 -4 -8 -10 -8 -5 0 -10 10 -10 23 0 18 2 19 10 7
5 -8 10 -18 10 -22z m20 -59 c0 -6 -4 -7 -10 -4 -5 3 -10 11 -10 16 0 6 5 7
10 4 6 -3 10 -11 10 -16z m20 -109 c0 -13 -1 -13 -10 0 -5 8 -10 22 -10 30 0
13 1 13 10 0 5 -8 10 -22 10 -30z m18 -115 c0 -43 -1 -46 -8 -20 -11 44 -11
116 0 90 5 -11 8 -42 8 -70z m77 38 c-4 -10 -10 -28 -12 -41 -6 -26 -23 -40
-23 -19 0 25 22 77 32 77 6 0 7 -8 3 -17z m32 -80 c-3 -10 -5 -2 -5 17 0 19 2
27 5 18 2 -10 2 -26 0 -35z m-72 -88 c10 -30 26 -62 36 -71 23 -21 24 -34 4
-34 -18 0 -18 0 -1 -72 20 -81 1 -73 -23 10 -17 58 -26 99 -47 200 -9 45 15
20 31 -33z m75 35 c0 -5 -2 -10 -4 -10 -3 0 -8 5 -11 10 -3 6 -1 10 4 10 6 0
11 -4 11 -10z m187 -212 c-3 -8 -6 -5 -6 6 -1 11 2 17 5 13 3 -3 4 -12 1 -19z
m-197 -138 c0 -11 -2 -20 -4 -20 -2 0 -6 9 -9 20 -3 11 -1 20 4 20 5 0 9 -9 9
-20z m147 -157 c-9 -9 -19 -14 -23 -11 -10 10 6 28 24 28 15 0 15 -1 -1 -17z
m53 -55 c0 -5 -4 -8 -10 -8 -5 0 -10 10 -10 23 0 18 2 19 10 7 5 -8 10 -18 10
-22z m80 -603 c0 -8 -4 -15 -10 -15 -5 0 -10 7 -10 15 0 8 5 15 10 15 6 0 10
-7 10 -15z"/>
<path d="M2830 11046 c0 -9 5 -16 10 -16 6 0 10 4 10 9 0 6 -4 13 -10 16 -5 3
-10 -1 -10 -9z"/>
<path d="M2860 10963 c0 -12 5 -25 10 -28 13 -8 13 15 0 35 -8 12 -10 11 -10
-7z"/>
<path d="M3285 10964 c9 -9 18 -14 21 -11 9 9 -6 27 -22 27 -13 0 -13 -2 1
-16z"/>
<path d="M3350 10960 c0 -6 7 -13 15 -16 8 -4 15 -10 15 -15 0 -14 -22 -10
-42 8 -17 15 -18 15 -18 -5 0 -12 5 -22 10 -22 6 0 10 -7 10 -15 0 -8 5 -15
11 -15 6 0 9 -7 5 -15 -8 -22 13 -19 69 9 38 20 56 23 84 18 l35 -8 -37 -22
c-20 -12 -37 -25 -37 -29 0 -4 14 -16 30 -25 27 -15 45 -9 20 7 -17 11 -11 23
15 29 14 4 25 13 25 21 0 8 5 15 10 15 6 0 10 6 10 13 0 8 -10 13 -22 13 -13
-1 -22 4 -20 12 1 7 -8 12 -22 12 -13 0 -27 6 -29 13 -4 9 -8 9 -15 -2 -7 -10
-14 -10 -29 -2 -25 13 -37 3 -21 -16 9 -11 8 -17 -4 -29 -15 -15 -48 -10 -48
8 0 6 7 8 15 5 20 -8 29 11 14 29 -18 22 -49 37 -49 24z"/>
<path d="M3260 10930 c0 -5 5 -10 11 -10 5 0 7 5 4 10 -3 6 -8 10 -11 10 -2 0
-4 -4 -4 -10z"/>
<path d="M3276 10885 c8 -19 43 -39 52 -30 7 6 -36 44 -50 45 -4 0 -5 -7 -2
-15z"/>
<path d="M4138 10893 c7 -3 16 -2 19 1 4 3 -2 6 -13 5 -11 0 -14 -3 -6 -6z"/>
<path d="M2901 10843 c11 -34 19 -42 19 -20 0 7 -7 22 -15 33 -13 17 -14 16
-4 -13z"/>
<path d="M3325 10829 c-4 -6 -5 -13 -2 -16 7 -7 27 6 27 18 0 12 -17 12 -25
-2z"/>
<path d="M3374 10825 c-3 -8 -4 -18 -1 -22 7 -12 -11 -53 -23 -53 -16 0 -12
21 8 37 16 14 16 14 -1 9 -10 -3 -25 -6 -34 -6 -12 0 -9 -9 11 -42 15 -24 33
-60 42 -80 20 -48 34 -49 34 -3 0 19 -4 35 -10 35 -5 0 -10 21 -10 46 0 39 2
45 14 35 20 -17 30 3 14 28 -16 27 -37 34 -44 16z"/>
<path d="M9660 10811 c-52 -16 -139 -45 -193 -65 -82 -31 -119 -39 -225 -48
-121 -10 -415 -6 -604 8 l-88 7 0 -186 0 -186 30 -16 c33 -17 38 -30 15 -39
-8 -3 -15 -18 -15 -33 0 -23 6 -31 30 -40 21 -8 30 -18 30 -35 0 -12 4 -29 9
-37 6 -9 4 -19 -5 -28 -8 -8 -14 -25 -14 -38 0 -21 -11 -48 -34 -84 -8 -12
-11 -11 -17 5 -6 16 -8 15 -8 -8 -1 -16 3 -28 9 -28 5 0 18 -7 29 -16 16 -14
17 -22 9 -57 -12 -55 -31 -66 -39 -24 -6 30 -6 29 -8 -11 0 -27 3 -41 9 -37 6
3 10 1 10 -6 0 -8 3 -9 13 0 15 12 27 5 27 -16 0 -7 -6 -13 -14 -13 -7 0 -16
-10 -20 -22 -5 -20 -8 -21 -17 -8 -11 16 -5 -921 7 -1030 l6 -55 101 -75 c55
-41 117 -87 138 -103 l37 -27 33 57 c46 80 134 171 194 199 91 43 120 24 56
-38 -22 -22 -41 -43 -41 -47 0 -4 -18 -32 -41 -62 -49 -65 -89 -141 -89 -168
0 -11 18 -38 40 -60 39 -39 52 -71 28 -71 -7 0 -48 20 -92 45 -43 25 -84 45
-90 45 -6 0 -19 9 -29 20 -9 11 -24 20 -32 20 -8 0 -15 6 -15 13 0 6 -15 18
-32 26 -18 8 -59 34 -90 59 -34 26 -62 41 -69 36 -15 -9 -3 -582 13 -601 6 -7
23 -13 39 -13 25 0 32 8 65 78 21 42 37 81 36 85 -5 17 62 98 77 95 26 -6 17
-117 -17 -228 l-29 -95 81 -40 c61 -30 82 -45 84 -62 5 -32 -9 -30 -169 22
-76 25 -145 45 -153 45 -30 0 -16 -26 34 -63 44 -33 49 -40 44 -65 -5 -26 7
-41 132 -165 76 -75 142 -133 146 -129 5 5 13 51 19 103 14 128 45 255 74 305
43 73 72 217 43 212 -9 -2 -14 15 -16 55 -2 45 0 57 12 57 10 0 18 -18 26 -55
6 -30 20 -65 31 -77 l20 -23 -5 132 c-6 147 7 189 18 60 17 -189 21 -213 30
-189 16 47 -6 231 -36 298 -7 14 -5 46 7 100 9 43 22 115 30 159 16 87 39 164
210 690 63 193 139 438 170 545 77 269 135 434 212 613 90 210 103 250 103
322 0 75 -22 109 -78 125 -55 15 -87 12 -192 -19z m87 -296 c-4 -8 -11 -15
-17 -15 -7 0 -7 6 0 21 13 23 26 19 17 -6z m-105 -51 c-3 -16 1 -30 9 -35 11
-7 10 -9 -3 -9 -14 0 -18 8 -18 35 0 19 4 35 9 35 4 0 6 -12 3 -26z m-987
-244 c3 -5 2 -10 -4 -10 -5 0 -13 5 -16 10 -3 6 -2 10 4 10 5 0 13 -4 16 -10z
m901 -80 c-14 -17 -26 -37 -26 -45 0 -7 -7 -18 -15 -25 -8 -7 -15 -9 -15 -6 0
14 33 72 53 93 31 34 34 19 3 -17z"/>
<path d="M3480 10781 c0 -5 7 -14 15 -21 8 -7 15 -16 15 -21 0 -5 -7 -6 -15
-3 -8 4 -15 1 -15 -5 0 -6 11 -13 25 -17 14 -3 25 -10 25 -15 0 -5 -6 -6 -13
-3 -7 2 -17 -8 -24 -26 -11 -29 -10 -31 10 -24 38 12 67 36 67 55 0 11 -4 19
-10 19 -5 0 -10 6 -10 13 0 6 -16 22 -35 35 -19 12 -35 18 -35 13z"/>
<path d="M3442 10708 c3 -7 13 -15 22 -16 12 -3 17 1 14 10 -3 7 -13 15 -22
16 -12 3 -17 -1 -14 -10z"/>
<path d="M3610 10700 c0 -5 5 -10 10 -10 6 0 10 5 10 10 0 6 -4 10 -10 10 -5
0 -10 -4 -10 -10z"/>
<path d="M3551 10653 c0 -6 -4 -18 -7 -27 -4 -11 -1 -16 10 -16 9 0 16 -4 16
-10 0 -5 -5 -10 -11 -10 -5 0 -7 -5 -3 -11 4 -6 20 -8 40 -4 26 4 34 3 34 -9
0 -8 -8 -19 -17 -25 -10 -5 -15 -13 -11 -17 5 -4 2 -14 -5 -22 -10 -13 -9 -14
11 -3 12 6 22 16 22 21 0 6 5 10 10 10 6 0 10 -8 10 -17 0 -14 4 -12 25 7 14
13 25 29 25 37 0 18 -10 16 -25 -4 -7 -9 -17 -13 -24 -9 -9 6 -9 12 3 25 9 10
13 21 9 26 -7 7 19 1 55 -12 6 -3 12 -1 12 4 0 18 -24 33 -52 33 -20 0 -28 5
-28 17 0 13 -3 14 -12 5 -7 -7 -18 -12 -26 -12 -12 0 -12 3 -2 15 7 8 8 15 2
15 -5 0 -15 -7 -22 -15 -16 -20 -27 -19 -33 3 -3 9 -5 12 -6 5z m54 -53 c3 -5
1 -10 -4 -10 -6 0 -11 5 -11 10 0 6 2 10 4 10 3 0 8 -4 11 -10z"/>
<path d="M2970 10645 c0 -5 5 -17 10 -25 5 -8 10 -10 10 -5 0 6 -5 17 -10 25
-5 8 -10 11 -10 5z"/>
<path d="M3476 10582 c-4 -7 -16 -12 -27 -12 -10 0 -19 -4 -19 -10 0 -5 14
-10 31 -10 28 0 30 -2 18 -16 -10 -13 -10 -17 2 -25 32 -20 36 -7 15 50 -8 22
-15 31 -20 23z"/>
<path d="M3010 10521 c0 -5 5 -13 10 -16 6 -3 10 -2 10 4 0 5 -4 13 -10 16 -5
3 -10 2 -10 -4z"/>
<path d="M3701 10501 c-7 -5 -11 -13 -8 -19 9 -14 -30 -45 -48 -39 -8 4 -15
13 -15 22 0 22 -18 19 -25 -5 -10 -31 4 -43 41 -37 26 4 39 1 53 -14 24 -26
28 -17 21 48 -4 41 -8 51 -19 44z"/>
<path d="M3495 10460 c-3 -5 -1 -10 4 -10 6 0 11 5 11 10 0 6 -2 10 -4 10 -3
0 -8 -4 -11 -10z"/>
<path d="M3052 10415 c0 -16 2 -22 5 -12 2 9 2 23 0 30 -3 6 -5 -1 -5 -18z"/>
<path d="M3513 10415 c2 -5 13 -11 25 -13 12 -2 22 -11 22 -20 0 -13 3 -13 12
-4 18 18 -2 45 -35 46 -15 1 -26 -3 -24 -9z"/>
<path d="M3606 10365 c-3 -8 -1 -15 3 -15 5 0 11 7 15 15 3 8 1 15 -3 15 -5 0
-11 -7 -15 -15z"/>
<path d="M3620 10330 c0 -5 5 -10 10 -10 6 0 10 5 10 10 0 6 -4 10 -10 10 -5
0 -10 -4 -10 -10z"/>
<path d="M3082 10300 c0 -14 2 -19 5 -12 2 6 2 18 0 25 -3 6 -5 1 -5 -13z"/>
<path d="M8560 10304 c0 -8 5 -12 10 -9 6 4 8 11 5 16 -9 14 -15 11 -15 -7z"/>
<path d="M3545 10250 c-3 -5 -2 -10 4 -10 5 0 13 5 16 10 3 6 2 10 -4 10 -5 0
-13 -4 -16 -10z"/>
<path d="M3715 10230 c3 -5 13 -10 21 -10 8 0 12 5 9 10 -3 6 -13 10 -21 10
-8 0 -12 -4 -9 -10z"/>
<path d="M3112 10190 c0 -14 2 -19 5 -12 2 6 2 18 0 25 -3 6 -5 1 -5 -13z"/>
<path d="M3131 10093 c0 -5 4 -17 9 -28 8 -18 9 -17 9 8 1 15 -3 27 -9 27 -5
0 -10 -3 -9 -7z"/>
<path d="M8587 10063 c-4 -3 -7 -11 -7 -17 0 -6 5 -5 12 2 6 6 9 14 7 17 -3 3
-9 2 -12 -2z"/>
<path d="M3170 9968 c0 -13 5 -30 10 -38 7 -11 10 -7 10 17 0 17 -4 35 -10 38
-6 3 -10 -4 -10 -17z"/>
<path d="M9387 8943 c-4 -3 -7 -11 -7 -17 0 -6 5 -5 12 2 6 6 9 14 7 17 -3 3
-9 2 -12 -2z"/>
<path d="M5096 8921 c-4 -6 0 -14 8 -17 9 -3 16 -15 16 -26 0 -16 3 -18 14 -9
15 13 10 54 -6 45 -6 -4 -14 -1 -18 6 -5 9 -9 9 -14 1z"/>
<path d="M5170 8909 c0 -5 5 -7 10 -4 6 3 10 8 10 11 0 2 -4 4 -10 4 -5 0 -10
-5 -10 -11z"/>
<path d="M5170 8796 c0 -8 -11 -28 -25 -44 -31 -37 -31 -50 -2 -57 40 -10 112
-10 112 0 0 6 4 16 8 23 5 6 5 13 0 14 -4 0 -12 2 -18 3 -5 2 -16 3 -24 4 -9
1 -11 9 -7 26 5 19 3 23 -9 19 -10 -4 -15 0 -15 10 0 9 -4 16 -10 16 -5 0 -10
-6 -10 -14z"/>
<path d="M5180 8601 c0 -6 9 -15 20 -21 13 -7 20 -7 20 -1 0 6 -9 15 -20 21
-13 7 -20 7 -20 1z"/>
<path d="M9418 8533 c121 -129 205 -259 242 -375 24 -74 36 -90 26 -32 -28
144 -187 402 -278 450 -47 25 -45 15 10 -43z"/>
<path d="M5440 8539 c0 -5 5 -7 10 -4 6 3 10 8 10 11 0 2 -4 4 -10 4 -5 0 -10
-5 -10 -11z"/>
<path d="M5248 8285 c-3 -5 -9 -25 -13 -42 -8 -39 11 -46 21 -9 7 28 1 66 -8
51z"/>
<path d="M3520 8179 c0 -5 5 -7 10 -4 6 3 10 8 10 11 0 2 -4 4 -10 4 -5 0 -10
-5 -10 -11z"/>
<path d="M9354 8058 c3 -13 6 -26 6 -30 0 -4 7 -5 15 -2 12 5 13 10 4 20 -9
11 -8 14 5 14 9 0 16 5 16 10 0 6 -12 10 -26 10 -22 0 -25 -3 -20 -22z"/>
<path d="M9437 7990 c3 -11 9 -17 15 -14 5 3 4 12 -3 20 -16 19 -18 18 -12 -6z"/>
<path d="M9711 7968 c-1 -31 -4 -35 -21 -31 -11 3 -20 0 -20 -6 0 -6 -9 -11
-19 -11 -11 0 -21 -6 -23 -12 -3 -9 -17 -4 -46 15 -43 28 -72 35 -72 17 0 -5
6 -10 13 -10 6 0 32 -18 57 -41 105 -94 130 -113 143 -100 9 9 8 19 -1 43 -9
25 -9 34 1 40 9 5 9 12 1 25 -6 10 -8 27 -4 38 4 11 3 31 -1 45 -6 22 -7 21
-8 -12z"/>
<path d="M9470 7970 c0 -5 5 -10 10 -10 6 0 10 5 10 10 0 6 -4 10 -10 10 -5 0
-10 -4 -10 -10z"/>
<path d="M9150 7926 c0 -8 -3 -23 -6 -33 -5 -12 -4 -15 3 -8 16 15 26 55 14
55 -6 0 -11 -6 -11 -14z"/>
<path d="M9210 7919 c0 -6 -16 -48 -35 -92 -38 -90 -20 -77 26 18 31 63 35 85
19 85 -5 0 -10 -5 -10 -11z"/>
<path d="M9120 7850 c0 -5 5 -10 10 -10 6 0 10 5 10 10 0 6 -4 10 -10 10 -5 0
-10 -4 -10 -10z"/>
<path d="M3963 7805 c0 -22 2 -30 4 -17 2 12 2 30 0 40 -3 9 -5 -1 -4 -23z"/>
<path d="M9160 7710 c0 -5 5 -10 10 -10 6 0 10 5 10 10 0 6 -4 10 -10 10 -5 0
-10 -4 -10 -10z"/>
<path d="M5011 7641 c-39 -33 -96 -74 -126 -91 -30 -17 -55 -35 -55 -40 0 -5
-15 -11 -32 -15 -18 -4 -50 -20 -70 -36 -28 -22 -52 -31 -97 -35 -43 -5 -58
-10 -54 -20 3 -8 -7 -15 -31 -20 -20 -3 -36 -10 -36 -15 0 -14 -38 -11 -43 4
-3 6 -6 3 -6 -9 -1 -11 16 -47 37 -80 32 -49 113 -187 169 -287 15 -26 17 -77
4 -77 -16 0 -56 59 -101 149 -44 88 -60 103 -35 31 8 -23 15 -52 15 -63 0 -19
-1 -19 -20 -2 -19 17 -19 16 -14 -21 5 -37 5 -38 -11 -19 -9 11 -35 56 -57
100 -22 44 -46 87 -54 95 -19 23 -65 110 -57 110 19 0 115 -121 134 -168 12
-29 24 -50 27 -48 12 12 -45 133 -85 179 -23 28 -43 56 -43 62 0 7 12 17 27
24 24 11 25 14 11 22 -10 6 -34 3 -68 -8 -41 -13 -58 -14 -83 -5 -18 6 -72 16
-122 22 -60 7 -94 16 -102 26 -6 9 -16 13 -22 9 -6 -3 -11 -1 -11 6 0 10 -3
10 -12 0 -10 -11 -10 -14 0 -18 6 -3 12 -9 12 -14 0 -19 -24 -8 -54 24 -17 19
-37 32 -44 29 -21 -7 -62 7 -62 21 0 7 -9 13 -21 14 -11 1 -36 16 -55 32 -19
17 -44 31 -54 31 -12 0 -20 7 -20 18 0 14 -4 12 -20 -8 -12 -16 -20 -41 -20
-67 0 -23 -7 -71 -15 -107 -14 -58 -14 -73 0 -139 16 -77 54 -184 80 -224 21
-31 58 -30 82 3 l19 25 -2 -28 c0 -15 -2 -30 -4 -33 -1 -3 -4 -14 -5 -25 -2
-11 -6 -27 -9 -35 -10 -25 32 -92 127 -200 87 -99 107 -115 107 -85 0 8 5 15
10 15 6 0 10 -11 10 -24 0 -24 56 -80 70 -71 4 2 12 29 19 59 12 56 50 118 51
85 0 -9 -7 -33 -15 -52 -17 -41 -19 -95 -5 -117 5 -8 11 -12 13 -10 7 9 37
187 37 218 0 18 5 32 11 32 8 0 9 -27 4 -90 -8 -106 1 -124 66 -135 29 -5 39
-11 39 -26 0 -23 -24 -25 -64 -4 -38 20 -56 19 -56 -3 0 -26 25 -57 62 -76 18
-9 40 -22 50 -28 13 -10 23 -6 53 16 l37 28 -31 32 c-38 39 -39 49 -5 36 62
-24 85 -8 164 109 73 110 310 520 375 651 89 178 182 420 162 420 -3 0 -37
-27 -76 -59z m-1301 -131 c0 -5 -2 -10 -4 -10 -3 0 -8 5 -11 10 -3 6 -1 10 4
10 6 0 11 -4 11 -10z m328 -157 c6 -19 -33 -16 -49 3 -11 14 -9 15 16 12 16
-1 30 -9 33 -15z m852 7 c0 -5 -5 -10 -11 -10 -5 0 -7 5 -4 10 3 6 8 10 11 10
2 0 4 -4 4 -10z m-736 -32 c21 -35 30 -99 14 -110 -10 -7 -9 -11 6 -23 16 -12
17 -17 6 -30 -10 -12 -10 -28 -2 -73 17 -87 25 -210 14 -193 -6 8 -8 20 -5 27
3 7 -2 35 -10 61 -9 26 -21 86 -27 133 -6 47 -18 114 -25 150 -7 35 -11 68 -9
72 9 14 23 8 38 -14z m735 -45 c1 -7 -3 -13 -9 -13 -5 0 -10 15 -9 33 0 27 2
29 9 12 5 -11 9 -26 9 -32z m-39 -15 c0 -50 -12 -108 -21 -108 -10 0 -11 49
-3 103 8 46 24 49 24 5z m-746 -69 c-3 -5 -10 -7 -15 -3 -5 3 -7 10 -3 15 3 5
10 7 15 3 5 -3 7 -10 3 -15z m-145 -55 c9 -20 9 -25 0 -22 -14 5 -32 48 -20
48 4 0 13 -12 20 -26z"/>
<path d="M8380 7693 c0 -5 9 -18 20 -28 11 -10 20 -14 20 -8 0 5 -9 18 -20 28
-11 10 -20 14 -20 8z"/>
<path d="M3982 7604 c3 -63 23 -88 55 -68 12 7 25 5 52 -8 19 -10 46 -18 59
-18 l23 0 -27 39 c-34 46 -119 111 -146 111 -17 0 -19 -6 -16 -56z"/>
<path d="M9133 7615 c-9 -41 -3 -60 11 -36 11 17 120 -25 201 -78 44 -28 87
-51 96 -51 9 0 19 -9 22 -20 6 -21 53 -48 65 -36 15 16 -122 112 -260 183 -61
30 -108 61 -108 69 0 31 -17 11 -27 -31z"/>
<path d="M8605 7610 c3 -5 11 -10 16 -10 6 0 7 5 4 10 -3 6 -11 10 -16 10 -6
0 -7 -4 -4 -10z"/>
<path d="M9864 7554 c4 -21 17 -59 29 -84 29 -64 35 -22 7 53 -26 70 -46 87
-36 31z"/>
<path d="M3525 7510 c-3 -5 -1 -10 4 -10 6 0 11 5 11 10 0 6 -2 10 -4 10 -3 0
-8 -4 -11 -10z"/>
<path d="M8640 7485 c0 -29 9 -46 47 -86 50 -53 97 -84 113 -74 6 3 10 17 10
31 0 19 -5 24 -25 24 -24 0 -29 9 -26 37 1 7 -11 15 -26 19 -40 10 -47 15 -32
25 11 8 10 12 -6 25 -48 37 -55 37 -55 -1z"/>
<path d="M3550 7451 c0 -5 5 -13 10 -16 6 -3 10 -2 10 4 0 5 -4 13 -10 16 -5
3 -10 2 -10 -4z"/>
<path d="M9023 7413 c-7 -20 -8 -33 -2 -33 13 0 22 24 17 47 -3 13 -7 9 -15
-14z"/>
<path d="M5099 7328 c-7 -13 -27 -51 -46 -85 -33 -62 -41 -93 -24 -93 20 0
101 153 101 191 0 17 -19 9 -31 -13z"/>
<path d="M8830 7308 c0 -30 33 -60 107 -97 43 -22 109 -29 98 -11 -3 6 -15 10
-27 10 -27 0 -78 31 -78 47 0 7 -8 13 -19 13 -11 0 -21 9 -24 21 -3 12 -10 18
-17 14 -6 -4 -18 1 -25 11 -13 18 -14 17 -15 -8z"/>
<path d="M5338 7255 c-2 -27 1 -44 7 -42 13 5 19 87 7 87 -6 0 -12 -20 -14
-45z"/>
<path d="M9620 7267 c0 -13 81 -149 87 -144 2 3 -7 27 -20 54 -26 49 -66 104
-67 90z"/>
<path d="M9060 7162 c0 -5 7 -16 16 -23 14 -12 16 -11 13 5 -4 20 -29 35 -29
18z"/>
<path d="M4972 7091 c-31 -43 -41 -71 -24 -71 13 0 32 23 32 39 0 8 7 22 16
32 9 10 14 24 12 31 -3 7 -18 -6 -36 -31z"/>
<path d="M9175 7100 c3 -5 16 -10 28 -9 21 0 21 1 2 9 -28 12 -37 12 -30 0z"/>
<path d="M5200 7070 c0 -5 5 -10 10 -10 6 0 10 5 10 10 0 6 -4 10 -10 10 -5 0
-10 -4 -10 -10z"/>
<path d="M4923 7003 c-16 -6 -17 -33 -3 -33 11 0 26 28 19 34 -2 2 -10 1 -16
-1z"/>
<path d="M9760 6960 c0 -11 5 -20 10 -20 6 0 10 9 10 20 0 11 -4 20 -10 20 -5
0 -10 -9 -10 -20z"/>
<path d="M8436 6954 c-4 -9 -4 -19 -1 -23 8 -7 38 12 43 27 6 19 -35 14 -42
-4z"/>
<path d="M5040 6822 c0 -10 -12 -22 -30 -29 -38 -14 -50 -46 -50 -131 -1 -61
-2 -65 -15 -48 -8 11 -15 27 -15 35 0 9 -4 22 -9 30 -10 15 -20 8 -145 -107
-41 -38 -46 -46 -32 -54 9 -5 14 -14 10 -19 -4 -6 -11 -5 -21 2 -12 11 -19 7
-40 -19 -13 -18 -29 -32 -35 -32 -18 0 -168 -141 -168 -158 0 -6 19 -24 42
-41 l42 -31 28 27 c15 14 31 24 34 20 4 -4 -1 -34 -10 -68 -10 -33 -16 -63
-13 -65 2 -2 32 58 67 133 35 76 72 152 82 169 10 18 17 38 16 45 -2 10 10 15
42 17 45 3 64 17 55 40 -7 18 24 15 50 -7 18 -13 21 -21 12 -30 -8 -8 -4 -11
16 -11 17 0 27 -5 27 -15 0 -7 7 -18 16 -23 8 -5 21 -19 27 -33 17 -33 43 -36
51 -5 6 24 26 34 99 50 15 4 27 11 27 16 0 5 -7 6 -17 3 -12 -5 -14 -3 -8 8 9
14 11 20 21 81 5 31 3 39 -12 45 -23 8 -68 39 -112 76 -18 15 -44 27 -57 27
-26 0 -33 14 -13 26 6 4 39 10 72 13 l59 6 -35 38 c-39 40 -58 47 -58 19z
m-198 -224 c-7 -7 -12 -8 -12 -2 0 14 12 26 19 19 2 -3 -1 -11 -7 -17z m298
12 c0 -5 -4 -10 -10 -10 -5 0 -10 5 -10 10 0 6 5 10 10 10 6 0 10 -4 10 -10z
m-74 -50 c31 0 31 -17 -1 -32 -32 -14 -93 0 -109 24 -8 13 -6 21 9 36 20 19
20 19 48 -4 16 -13 39 -24 53 -24z m-396 -211 c0 -5 -4 -9 -10 -9 -5 0 -10 7
-10 16 0 8 5 12 10 9 6 -3 10 -10 10 -16z"/>
<path d="M3615 6780 c-4 -6 -15 -8 -26 -5 -11 4 -19 2 -19 -4 0 -6 -6 -11 -14
-11 -24 0 -65 -51 -72 -89 -4 -20 -13 -49 -21 -64 -26 -51 -8 -50 25 1 18 28
51 72 75 98 55 63 71 84 64 84 -3 0 -9 -5 -12 -10z"/>
<path d="M3660 6735 c0 -7 15 -56 34 -107 47 -127 47 -128 58 -128 21 0 78 33
78 45 0 7 -26 42 -59 78 -32 35 -67 79 -77 96 -20 33 -34 40 -34 16z"/>
<path d="M8910 6695 c-10 -13 -9 -15 9 -15 12 0 21 6 21 15 0 8 -4 15 -9 15
-5 0 -14 -7 -21 -15z"/>
<path d="M9357 6518 c23 -23 45 -39 48 -36 8 7 -65 77 -80 78 -5 0 9 -19 32
-42z"/>
<path d="M3845 6500 c-3 -6 4 -10 17 -10 20 -1 18 -4 -14 -20 -32 -18 -78 -67
-78 -85 0 -4 -8 -14 -19 -23 -10 -10 -24 -37 -31 -62 -6 -25 -18 -52 -26 -61
-13 -14 -12 -18 1 -29 8 -7 15 -20 15 -30 0 -9 14 -36 30 -58 26 -37 35 -42
69 -42 28 0 45 7 65 26 20 21 26 23 26 10 0 -9 5 -16 12 -16 20 0 96 87 103
119 4 17 19 46 33 63 19 23 26 42 26 69 -1 31 -18 90 -30 107 -1 2 -14 -4 -28
-13 -25 -16 -26 -16 -65 24 -40 41 -91 56 -106 31z m5 -115 c0 -8 -4 -15 -10
-15 -5 0 -10 7 -10 15 0 8 5 15 10 15 6 0 10 -7 10 -15z m80 -195 c0 -5 -4
-10 -10 -10 -5 0 -10 5 -10 10 0 6 5 10 10 10 6 0 10 -4 10 -10z"/>
<path d="M5320 6470 c-9 -17 -7 -22 12 -30 13 -5 19 -10 13 -11 -22 -4 52 -14
78 -11 41 6 33 29 -19 52 -58 25 -71 25 -84 0z"/>
<path d="M5445 6480 c-3 -5 1 -10 9 -10 9 0 16 5 16 10 0 6 -4 10 -9 10 -6 0
-13 -4 -16 -10z"/>
<path d="M9323 6439 c5 -40 30 -79 43 -67 3 4 0 22 -7 42 -7 20 -10 38 -7 41
3 3 45 -13 93 -35 48 -22 90 -39 92 -37 2 2 -20 22 -49 44 -42 32 -65 41 -112
47 l-59 6 6 -41z"/>
<path d="M4795 6339 c-35 -39 -37 -45 -31 -87 6 -48 36 -106 44 -84 2 6 -4 37
-13 69 l-17 57 46 43 c33 32 40 43 27 43 -10 0 -35 -19 -56 -41z"/>
<path d="M4120 6350 c-12 -8 -11 -10 6 -10 11 0 25 -5 31 -11 8 -8 13 -7 18 1
14 23 -28 38 -55 20z"/>
<path d="M9430 6354 c0 -3 8 -20 18 -36 13 -24 14 -32 4 -35 -7 -3 -25 -15
-40 -28 -40 -33 -81 -51 -132 -59 -161 -23 -280 -65 -280 -98 0 -15 214 -5
233 11 12 10 19 8 35 -9 11 -12 26 -18 34 -15 9 4 19 2 23 -4 9 -15 42 -14 48
2 3 9 7 9 19 -1 11 -9 28 -10 68 -2 30 6 54 11 55 13 1 1 5 30 8 64 4 54 2 66
-20 98 -19 28 -22 39 -13 50 9 11 7 18 -9 34 -20 20 -51 29 -51 15z m30 -208
c0 -3 -4 -8 -10 -11 -5 -3 -10 -1 -10 4 0 6 5 11 10 11 6 0 10 -2 10 -4z"/>
<path d="M9538 6339 c-19 -11 -23 -45 -9 -68 7 -10 12 -8 25 10 16 24 22 69 9
69 -5 0 -16 -5 -25 -11z"/>
<path d="M3680 6309 c0 -5 5 -7 10 -4 6 3 10 8 10 11 0 2 -4 4 -10 4 -5 0 -10
-5 -10 -11z"/>
<path d="M4857 6302 c-24 -27 -21 -41 11 -47 15 -3 49 -10 75 -16 78 -18 89
20 20 62 -29 18 -39 20 -54 11 -12 -8 -19 -8 -19 -2 0 16 -15 12 -33 -8z"/>
<path d="M5043 6283 c8 -40 27 -87 32 -81 9 9 -16 108 -27 108 -6 0 -8 -12 -5
-27z"/>
<path d="M4351 6241 l-24 -18 21 -31 c19 -26 20 -31 7 -42 -17 -14 -17 -15
-33 23 -13 31 -47 36 -60 10 -5 -10 -17 -47 -27 -83 -9 -36 -26 -82 -36 -102
l-19 -38 39 0 c43 0 151 36 151 50 0 4 11 10 23 14 45 11 77 45 77 81 0 19 5
37 10 40 19 12 10 34 -17 37 -14 2 -28 9 -31 17 -3 10 2 11 19 6 l24 -7 -23
23 c-19 21 -24 22 -32 9 -8 -12 -10 -11 -10 8 0 27 -25 29 -59 3z m49 -1 c0
-5 -4 -10 -10 -10 -5 0 -10 5 -10 10 0 6 5 10 10 10 6 0 10 -4 10 -10z"/>
<path d="M4895 6180 c3 -5 8 -10 11 -10 2 0 4 5 4 10 0 6 -5 10 -11 10 -5 0
-7 -4 -4 -10z"/>
<path d="M5206 6174 c-9 -23 -7 -36 3 -30 12 8 21 46 11 46 -4 0 -11 -7 -14
-16z"/>
<path d="M4140 6110 c-14 -11 -20 -20 -14 -20 7 0 22 9 35 20 31 25 12 26 -21
0z"/>
<path d="M4910 6090 c0 -6 -18 -30 -41 -54 -58 -63 -137 -87 -219 -65 -21 6
-67 -88 -52 -103 9 -9 16 -7 30 5 10 9 31 17 45 17 16 0 26 5 25 13 -2 8 10
11 44 9 40 -3 51 0 73 22 14 14 32 26 39 26 14 0 136 107 136 120 0 4 -9 6
-19 3 -10 -3 -28 0 -40 6 -14 8 -21 8 -21 1z"/>
<path d="M5187 6083 c-4 -3 -7 -11 -7 -17 0 -6 5 -5 12 2 6 6 9 14 7 17 -3 3
-9 2 -12 -2z"/>
<path d="M3623 6048 c-15 -20 -33 -79 -27 -89 6 -11 54 -12 54 -1 0 4 -9 13
-20 20 -19 12 -19 14 -4 43 16 32 14 49 -3 27z"/>
<path d="M3650 6000 c0 -5 5 -10 10 -10 6 0 10 5 10 10 0 6 -4 10 -10 10 -5 0
-10 -4 -10 -10z"/>
<path d="M5140 5964 c-12 -27 -30 -67 -41 -90 -10 -23 -19 -44 -19 -47 0 -4
-18 -45 -41 -93 -23 -47 -60 -136 -84 -198 -23 -61 -46 -120 -51 -130 -5 -13
-4 -17 4 -13 6 4 18 29 28 55 10 26 53 128 97 227 96 215 139 326 132 333 -2
3 -14 -17 -25 -44z"/>
<path d="M4830 5724 c0 -73 -1 -77 -34 -110 -28 -28 -41 -34 -77 -34 -57 0
-103 28 -129 79 -27 54 -12 59 35 11 65 -67 121 -73 159 -18 37 52 1 152 -45
127 -24 -13 -31 -41 -19 -74 15 -40 4 -43 -30 -10 -27 26 -38 29 -117 33 -93
5 -137 17 -112 32 23 15 -37 23 -88 12 -27 -6 -65 -13 -85 -17 -47 -7 -56 -21
-31 -47 16 -15 42 -21 124 -29 57 -5 113 -12 124 -16 11 -3 48 -33 82 -66 l62
-59 60 4 c68 5 103 28 127 85 16 37 19 173 4 173 -6 0 -10 -32 -10 -76z"/>
<path d="M9966 5732 c-4 -10 0 -39 8 -65 13 -45 13 -48 -7 -62 -24 -17 -23
-19 26 -40 33 -14 38 -14 43 -1 7 18 -22 122 -36 131 -6 3 -10 17 -10 31 0 28
-16 32 -24 6z"/>
<path d="M9866 5662 c-3 -5 -25 -14 -49 -20 -49 -13 -140 -79 -130 -96 13 -23
47 -56 58 -56 16 0 57 -45 49 -53 -4 -4 -13 -2 -21 4 -26 23 -13 -17 26 -79
32 -49 53 -68 113 -103 104 -60 166 -110 314 -251 79 -75 151 -134 185 -152
55 -29 57 -30 125 -17 103 18 105 22 38 72 -32 24 -83 68 -112 98 -30 31 -87
90 -128 131 -41 41 -74 80 -74 86 0 14 -165 179 -217 217 -24 16 -45 38 -48
49 -4 10 -11 18 -17 18 -12 0 -46 36 -64 66 -6 11 -21 20 -33 22 -20 3 -31 22
-12 22 13 0 23 32 12 43 -5 5 -11 5 -15 -1z"/>
<path d="M4230 5614 c0 -8 5 -12 10 -9 6 4 8 11 5 16 -9 14 -15 11 -15 -7z"/>
<path d="M9405 5550 c-10 -11 -16 -22 -13 -25 3 -3 13 4 23 15 10 11 16 22 13
25 -3 3 -13 -4 -23 -15z"/>
<path d="M4423 5538 c-18 -24 -24 -38 -16 -38 10 0 36 40 30 46 -2 3 -9 -1
-14 -8z"/>
<path d="M4495 5511 c-7 -12 12 -24 25 -16 11 7 4 25 -10 25 -5 0 -11 -4 -15
-9z"/>
<path d="M9290 5470 c0 -5 5 -10 11 -10 5 0 7 5 4 10 -3 6 -8 10 -11 10 -2 0
-4 -4 -4 -10z"/>
<path d="M5160 5380 c0 -5 5 -10 11 -10 5 0 7 5 4 10 -3 6 -8 10 -11 10 -2 0
-4 -4 -4 -10z"/>
<path d="M9420 5370 c0 -5 5 -10 11 -10 5 0 7 5 4 10 -3 6 -8 10 -11 10 -2 0
-4 -4 -4 -10z"/>
<path d="M4877 5333 c-5 -26 -2 -42 7 -32 9 11 15 59 7 59 -5 0 -11 -12 -14
-27z"/>
<path d="M9650 5270 c0 -5 5 -10 10 -10 6 0 10 5 10 10 0 6 -4 10 -10 10 -5 0
-10 -4 -10 -10z"/>
<path d="M4612 5224 c-13 -26 -21 -48 -18 -51 9 -9 46 18 47 35 1 9 3 27 4 40
4 35 -9 26 -33 -24z"/>
<path d="M4846 5229 c-8 -44 -8 -55 3 -43 14 14 24 74 13 74 -5 0 -12 -14 -16
-31z"/>
<path d="M9585 5240 c-3 -5 -1 -10 4 -10 6 0 11 5 11 10 0 6 -2 10 -4 10 -3 0
-8 -4 -11 -10z"/>
<path d="M5148 5233 c7 -3 16 -2 19 1 4 3 -2 6 -13 5 -11 0 -14 -3 -6 -6z"/>
<path d="M5155 5167 c-12 -10 -14 -16 -7 -21 18 -11 14 -26 -5 -26 -16 -1 -16
-2 1 -12 27 -15 61 24 46 53 -13 23 -11 22 -35 6z"/>
<path d="M9460 5140 c-13 -8 -12 -10 3 -10 9 0 17 5 17 10 0 12 -1 12 -20 0z"/>
<path d="M4825 5098 c-4 -26 -5 -53 -2 -60 2 -7 8 8 12 34 4 26 5 53 2 60 -2
7 -8 -8 -12 -34z"/>
<path d="M9648 4893 c-112 -135 -234 -338 -168 -278 18 16 20 17 20 1 0 -18
-58 -75 -77 -76 -7 0 -13 -6 -13 -13 0 -8 -10 -19 -22 -25 -14 -6 -17 -11 -8
-11 24 -1 149 63 150 77 0 6 11 12 24 12 18 0 23 4 20 18 -3 9 15 68 40 131
26 62 46 119 46 126 0 7 4 15 8 17 12 5 62 98 52 98 -4 0 -37 -35 -72 -77z
m-102 -201 c-18 -16 -18 -16 -6 6 6 13 14 21 18 18 3 -4 -2 -14 -12 -24z"/>
<path d="M4811 4924 c0 -11 3 -14 6 -6 3 7 2 16 -1 19 -3 4 -6 -2 -5 -13z"/>
<path d="M5065 4800 c-3 -5 -1 -10 4 -10 6 0 11 5 11 10 0 6 -2 10 -4 10 -3 0
-8 -4 -11 -10z"/>
<path d="M9770 4680 c0 -5 5 -10 10 -10 6 0 10 5 10 10 0 6 -4 10 -10 10 -5 0
-10 -4 -10 -10z"/>
<path d="M10978 4683 c7 -3 16 -2 19 1 4 3 -2 6 -13 5 -11 0 -14 -3 -6 -6z"/>
<path d="M5075 4670 c-3 -5 3 -10 15 -10 12 0 18 5 15 10 -3 6 -10 10 -15 10
-5 0 -12 -4 -15 -10z"/>
<path d="M10975 4640 c-3 -6 1 -7 9 -4 18 7 21 14 7 14 -6 0 -13 -4 -16 -10z"/>
<path d="M9736 4632 c-2 -4 7 -12 20 -19 26 -12 32 -5 12 15 -14 14 -25 15
-32 4z"/>
<path d="M10895 4630 c4 -6 2 -17 -4 -24 -8 -10 -4 -12 20 -8 29 4 29 5 13 23
-18 20 -40 26 -29 9z"/>
<path d="M9690 4574 c0 -8 5 -12 10 -9 6 4 8 11 5 16 -9 14 -15 11 -15 -7z"/>
<path d="M9734 4556 c-10 -8 -15 -18 -11 -22 4 -4 17 2 30 14 24 25 12 30 -19
8z"/>
<path d="M11250 4540 c0 -5 5 -10 10 -10 6 0 10 5 10 10 0 6 -4 10 -10 10 -5
0 -10 -4 -10 -10z"/>
<path d="M2935 4531 c-7 -12 12 -24 25 -16 11 7 4 25 -10 25 -5 0 -11 -4 -15
-9z"/>
<path d="M9681 4484 c0 -11 3 -14 6 -6 3 7 2 16 -1 19 -3 4 -6 -2 -5 -13z"/>
<path d="M11323 4466 c4 -10 1 -16 -8 -16 -8 0 -15 -4 -15 -10 0 -5 14 -10 30
-10 36 0 41 24 8 41 -18 10 -20 9 -15 -5z"/>
<path d="M11357 4324 c-4 -4 -7 -14 -7 -23 0 -11 3 -12 11 -4 6 6 10 16 7 23
-2 6 -7 8 -11 4z"/>
<path d="M12202 4259 c2 -7 10 -15 17 -17 8 -3 12 1 9 9 -2 7 -10 15 -17 17
-8 3 -12 -1 -9 -9z"/>
<path d="M2745 4230 c-3 -5 3 -10 15 -10 12 0 18 5 15 10 -3 6 -10 10 -15 10
-5 0 -12 -4 -15 -10z"/>
<path d="M12260 4238 c0 -7 45 -77 57 -88 10 -9 -25 54 -41 75 -8 11 -16 17
-16 13z"/>
<path d="M12250 3985 c0 -20 28 -31 43 -16 13 13 10 16 -20 25 -17 6 -23 3
-23 -9z"/>
<path d="M12087 3973 c-4 -3 -7 -11 -7 -17 0 -6 5 -5 12 2 6 6 9 14 7 17 -3 3
-9 2 -12 -2z"/>
<path d="M4060 3810 c0 -5 5 -10 11 -10 5 0 7 5 4 10 -3 6 -8 10 -11 10 -2 0
-4 -4 -4 -10z"/>
<path d="M3732 3782 c-21 -14 8 -31 84 -47 38 -9 81 -18 96 -21 16 -4 34 -1
43 6 12 10 18 10 30 0 17 -14 35 -5 35 18 0 15 -2 15 -11 2 -7 -10 -12 -11
-15 -4 -17 40 -29 44 -139 50 -60 3 -116 1 -123 -4z"/>
<path d="M4575 3780 c3 -5 14 -10 23 -10 15 0 15 2 2 10 -20 13 -33 13 -25 0z"/>
<path d="M5200 3781 c0 -5 7 -14 15 -21 13 -10 15 -9 15 9 0 12 -6 21 -15 21
-8 0 -15 -4 -15 -9z"/>
<path d="M5176 3752 c-3 -6 -1 -14 5 -17 15 -10 25 3 12 16 -7 7 -13 7 -17 1z"/>
<path d="M2115 3735 c-71 -8 -142 -14 -157 -14 -16 -1 -28 -5 -28 -11 0 -5 18
-8 43 -5 23 2 99 10 170 16 70 7 130 16 133 20 6 10 10 10 -161 -6z"/>
<path d="M12403 3739 c-18 -5 -33 -11 -33 -13 0 -2 47 -1 104 1 95 5 105 4
114 -13 14 -27 -2 -60 -37 -79 -17 -8 -31 -20 -31 -24 0 -5 18 0 39 12 22 12
43 18 47 14 13 -12 -26 -45 -148 -123 -65 -42 -117 -78 -115 -81 5 -4 244 132
270 155 22 20 22 59 -3 116 l-19 46 -78 -1 c-43 0 -93 -5 -110 -10z"/>
<path d="M1635 3688 c-27 -5 -54 -14 -60 -20 -7 -7 -4 -9 10 -5 11 3 47 8 79
12 78 9 117 24 61 23 -22 0 -62 -5 -90 -10z"/>
<path d="M3816 3691 c-9 -13 23 -36 34 -25 6 6 2 14 -10 22 -10 6 -21 8 -24 3z"/>
<path d="M2740 3665 c0 -14 2 -25 5 -25 13 0 55 33 55 43 0 5 -8 3 -18 -6 -23
-21 -33 -22 -26 -2 4 8 1 15 -5 15 -6 0 -11 -11 -11 -25z"/>
<path d="M4970 3683 c0 -19 31 -121 46 -155 9 -21 24 -38 32 -38 24 0 8 95
-25 149 -26 41 -53 64 -53 44z"/>
<path d="M4820 3671 c0 -13 40 -45 46 -38 11 11 -4 34 -25 40 -12 3 -21 2 -21
-2z"/>
<path d="M3167 3637 c-3 -8 -1 -20 4 -28 6 -10 9 -7 9 14 0 29 -5 35 -13 14z"/>
<path d="M3030 3630 c0 -5 7 -10 15 -10 8 0 15 5 15 10 0 6 -7 10 -15 10 -8 0
-15 -4 -15 -10z"/>
<path d="M5400 3610 c0 -5 5 -10 10 -10 6 0 10 5 10 10 0 6 -4 10 -10 10 -5 0
-10 -4 -10 -10z"/>
<path d="M3291 3594 c0 -11 3 -14 6 -6 3 7 2 16 -1 19 -3 4 -6 -2 -5 -13z"/>
<path d="M12641 3603 c-1 -6 -12 -25 -26 -42 l-26 -30 37 -3 37 -3 -28 -34
-29 -34 25 8 c13 4 30 10 37 12 21 8 13 -12 -14 -38 -14 -13 -30 -32 -36 -42
-8 -16 -7 -17 9 -9 10 6 27 20 37 31 11 12 23 21 28 21 14 0 9 -32 -7 -51 -15
-15 -13 -17 15 -21 16 -3 30 -4 30 -3 0 9 -89 247 -89 238z"/>
<path d="M1300 3590 c-12 -8 -12 -10 5 -10 11 0 27 5 35 10 12 8 12 10 -5 10
-11 0 -27 -5 -35 -10z"/>
<path d="M12433 3567 c-24 -11 -43 -25 -43 -30 0 -7 79 33 99 49 12 11 -19 0
-56 -19z"/>
<path d="M3379 3562 c6 -12 11 -40 11 -63 0 -34 3 -40 12 -31 7 7 21 12 33 12
20 1 55 22 55 33 0 4 -17 5 -37 4 -34 -2 -38 1 -43 28 -3 18 -12 31 -23 33
-16 3 -17 1 -8 -16z"/>
<path d="M3193 3543 c-15 -5 -18 -53 -4 -53 5 0 11 12 14 28 6 31 6 31 -10 25z"/>
<path d="M3290 3491 c-7 -15 -7 -21 0 -21 12 0 25 28 17 36 -3 3 -10 -4 -17
-15z"/>
<path d="M3565 3500 c-3 -5 1 -10 9 -10 9 0 16 5 16 10 0 6 -4 10 -9 10 -6 0
-13 -4 -16 -10z"/>
<path d="M12325 3500 c-3 -5 1 -10 9 -10 8 0 18 5 21 10 3 6 -1 10 -9 10 -8 0
-18 -4 -21 -10z"/>
<path d="M12508 3476 c-26 -17 -86 -55 -133 -85 -47 -29 -84 -56 -81 -59 6 -5
161 84 251 145 32 21 43 33 30 32 -11 -1 -41 -15 -67 -33z"/>
<path d="M5120 3444 c0 -12 7 -27 15 -34 20 -17 21 9 0 36 -14 19 -14 19 -15
-2z"/>
<path d="M5410 3439 c0 -5 5 -7 10 -4 6 3 10 8 10 11 0 2 -4 4 -10 4 -5 0 -10
-5 -10 -11z"/>
<path d="M12545 3420 c-3 -5 -2 -10 4 -10 5 0 13 5 16 10 3 6 2 10 -4 10 -5 0
-13 -4 -16 -10z"/>
<path d="M12151 3399 c-18 -11 -31 -23 -28 -26 7 -6 67 28 67 39 0 11 0 11
-39 -13z"/>
<path d="M12240 3380 c-25 -16 -41 -30 -36 -30 11 0 96 49 96 55 0 11 -17 3
-60 -25z"/>
<path d="M12435 3367 c-77 -49 -117 -79 -111 -84 6 -6 129 65 166 96 39 32 2
24 -55 -12z"/>
<path d="M12561 3364 c0 -11 3 -14 6 -6 3 7 2 16 -1 19 -3 4 -6 -2 -5 -13z"/>
<path d="M4800 3328 c0 -26 3 -30 11 -18 8 12 9 10 4 -7 -8 -28 15 -82 49
-113 15 -14 34 -38 42 -55 8 -16 30 -40 50 -53 31 -20 35 -28 32 -55 -3 -27 0
-32 19 -33 16 -1 23 4 23 16 0 10 7 23 15 30 15 12 21 40 9 40 -4 0 -13 -8
-20 -17 -11 -16 -12 -13 -7 22 3 22 13 49 22 60 9 11 12 17 7 13 -4 -4 -14 -1
-21 5 -10 9 -10 15 -2 26 9 11 7 17 -11 29 -12 8 -22 21 -22 29 0 8 -7 27 -15
42 -13 27 -30 37 -80 47 -11 3 -24 9 -29 14 -6 6 -25 10 -43 10 -31 0 -33 -2
-33 -32z"/>
<path d="M12483 3325 c-50 -34 -72 -55 -57 -55 18 0 114 65 114 77 0 17 2 18
-57 -22z"/>
<path d="M12563 3305 c-15 -13 -22 -25 -15 -25 17 0 62 30 62 41 0 16 -18 10
-47 -16z"/>
<path d="M11935 3283 c-78 -39 -80 -41 -74 -48 7 -6 145 60 153 74 11 17 -4
12 -79 -26z"/>
<path d="M12769 3299 c13 -11 26 -17 29 -14 7 6 -29 34 -43 34 -5 0 1 -9 14
-20z"/>
<path d="M12630 3275 c-7 -9 -10 -18 -7 -21 7 -8 47 14 47 26 0 15 -26 12 -40
-5z"/>
<path d="M5290 3253 c0 -25 10 -29 28 -11 18 18 14 37 -8 35 -14 -1 -20 -8
-20 -24z"/>
<path d="M12280 3259 c0 -5 5 -7 10 -4 6 3 10 8 10 11 0 2 -4 4 -10 4 -5 0
-10 -5 -10 -11z"/>
<path d="M12476 3245 c-5 -18 -17 -27 -47 -35 -31 -9 -38 -14 -30 -24 8 -9 7
-18 -3 -32 -14 -18 -15 -18 -35 6 l-20 25 -1 -27 c0 -16 -4 -28 -10 -28 -5 0
-10 5 -10 10 0 18 -24 10 -105 -34 -63 -36 -76 -46 -61 -52 11 -4 35 1 62 14
30 15 45 18 50 10 8 -13 -22 -38 -46 -38 -9 0 -25 -7 -36 -15 -28 -21 -49 -18
-61 8 l-10 22 -8 -24 c-5 -16 -3 -26 6 -32 9 -5 10 -9 3 -9 -7 0 -29 -15 -50
-34 l-39 -35 -21 20 c-21 20 -21 20 -37 -4 -14 -22 -14 -24 4 -35 17 -11 19
-9 19 10 l1 23 20 -24 20 -24 22 20 c12 11 33 26 46 33 21 11 23 10 18 -4 -4
-9 -2 -16 4 -16 6 0 13 9 16 20 4 16 9 18 19 9 15 -12 34 -4 34 16 0 20 118
105 147 105 13 0 41 11 61 25 20 14 42 25 49 25 7 0 17 9 23 20 6 11 17 20 24
20 21 0 63 37 80 70 17 34 7 39 -19 10 -24 -27 -69 -28 -60 -1 3 11 2 22 -4
25 -5 3 -12 -5 -15 -19z"/>
<path d="M12240 3235 c-11 -13 -10 -14 4 -9 9 3 16 10 16 15 0 13 -6 11 -20
-6z"/>
<path d="M12364 3235 c-10 -8 -14 -15 -8 -15 5 0 19 7 30 15 10 8 14 15 8 15
-5 0 -19 -7 -30 -15z"/>
<path d="M12250 3175 c-7 -8 -8 -15 -2 -15 5 0 15 7 22 15 7 8 8 15 2 15 -5 0
-15 -7 -22 -15z"/>
<path d="M878 3142 c-30 -4 -39 -22 -10 -21 25 1 57 15 46 20 -5 3 -21 3 -36
1z"/>
<path d="M3225 3130 c-3 -5 -1 -10 4 -10 6 0 11 5 11 10 0 6 -2 10 -4 10 -3 0
-8 -4 -11 -10z"/>
<path d="M3140 3100 c0 -5 5 -10 10 -10 6 0 10 5 10 10 0 6 -4 10 -10 10 -5 0
-10 -4 -10 -10z"/>
<path d="M5360 3029 c0 -5 5 -7 10 -4 6 3 10 8 10 11 0 2 -4 4 -10 4 -5 0 -10
-5 -10 -11z"/>
<path d="M4847 3023 c-4 -3 -7 -16 -6 -27 0 -19 1 -19 10 3 10 24 8 36 -4 24z"/>
<path d="M5093 2987 c-39 -41 -48 -69 -30 -104 8 -15 25 -70 38 -120 23 -90
39 -118 39 -69 0 13 7 29 15 36 17 14 20 46 6 54 -6 4 -5 20 0 41 8 28 7 39
-5 50 -20 20 -26 19 -26 -5 0 -11 -4 -20 -9 -20 -6 0 -6 12 0 30 13 35 63 80
90 80 10 0 19 5 19 10 0 19 -30 22 -55 6 -33 -22 -35 -21 -35 14 0 37 -7 37
-47 -3z"/>
<path d="M5215 3010 c3 -5 10 -10 16 -10 5 0 9 5 9 10 0 6 -7 10 -16 10 -8 0
-12 -4 -9 -10z"/>
<path d="M809 2920 c-46 -49 -172 -181 -279 -292 -107 -111 -182 -193 -167
-181 37 28 515 523 528 546 18 31 2 18 -82 -73z"/>
<path d="M5560 3000 c0 -5 5 -10 10 -10 6 0 10 5 10 10 0 6 -4 10 -10 10 -5 0
-10 -4 -10 -10z"/>
<path d="M5489 2944 l-24 -27 32 17 c36 18 51 36 30 36 -7 0 -24 -12 -38 -26z"/>
<path d="M4330 2949 c0 -5 5 -7 10 -4 6 3 10 8 10 11 0 2 -4 4 -10 4 -5 0 -10
-5 -10 -11z"/>
<path d="M3975 2940 c-3 -5 1 -10 9 -10 9 0 16 5 16 10 0 6 -4 10 -9 10 -6 0
-13 -4 -16 -10z"/>
<path d="M3951 2881 c-31 -25 -33 -29 -21 -52 l13 -24 12 27 c6 15 21 39 35
53 33 35 5 33 -39 -4z"/>
<path d="M5360 2860 c-7 -13 -7 -20 -1 -20 6 0 15 9 21 20 7 13 7 20 1 20 -6
0 -15 -9 -21 -20z"/>
<path d="M4600 2861 c0 -5 9 -7 20 -4 11 3 20 7 20 9 0 2 -9 4 -20 4 -11 0
-20 -4 -20 -9z"/>
<path d="M11910 2860 c0 -5 4 -10 9 -10 6 0 13 5 16 10 3 6 -1 10 -9 10 -9 0
-16 -4 -16 -10z"/>
<path d="M4567 2797 c-3 -9 -14 -17 -23 -17 -12 0 -15 -6 -10 -23 10 -43 36
-97 46 -97 12 0 12 106 1 134 -7 18 -8 18 -14 3z"/>
<path d="M5330 2764 c0 -8 5 -12 10 -9 6 3 10 10 10 16 0 5 -4 9 -10 9 -5 0
-10 -7 -10 -16z"/>
<path d="M4953 2614 c-8 -22 5 -30 23 -12 14 14 14 16 -1 21 -9 4 -18 1 -22
-9z"/>
<path d="M4652 2565 c-7 -15 -10 -31 -7 -36 8 -12 -2 -11 -25 3 -16 10 -23 9
-41 -7 -16 -14 -23 -16 -26 -7 -5 14 -35 16 -49 2 -11 -11 -27 -2 -42 25 -10
18 -11 18 -17 3 -5 -12 4 -28 29 -51 20 -19 36 -43 36 -53 1 -17 2 -17 13 -3
7 9 30 19 51 23 22 4 49 14 60 22 11 8 27 14 36 14 9 0 23 13 33 29 21 36 21
41 -1 41 -10 0 -23 5 -28 10 -7 7 -14 2 -22 -15z"/>
<path d="M5227 2544 c-4 -4 -7 -19 -6 -33 l0 -26 10 24 c10 26 8 47 -4 35z"/>
<path d="M7334 2483 c-10 -100 1 -215 26 -267 27 -57 175 -215 254 -270 116
-83 371 -230 497 -287 164 -75 735 -275 760 -267 6 2 -22 17 -62 33 -115 45
-174 74 -174 85 0 6 -79 37 -175 70 -138 46 -212 78 -350 152 -96 51 -202 111
-235 134 -33 22 -82 54 -110 69 -27 16 -66 41 -86 57 -20 15 -44 28 -53 28 -9
0 -16 6 -16 13 0 6 -42 55 -94 108 -51 52 -106 118 -122 145 -26 44 -29 60
-33 157 -2 59 -7 107 -11 107 -5 0 -12 -30 -16 -67z"/>
<path d="M5380 2480 c0 -5 5 -10 11 -10 5 0 7 5 4 10 -3 6 -8 10 -11 10 -2 0
-4 -4 -4 -10z"/>
<path d="M5183 2428 c-6 -7 -16 -24 -23 -38 l-13 -25 22 20 c27 24 46 55 33
55 -5 0 -14 -6 -19 -12z"/>
<path d="M5069 2294 c-55 -42 -95 -56 -118 -42 -11 7 -23 9 -27 5 -9 -8 24
-47 40 -47 21 0 153 96 144 105 -2 3 -20 -7 -39 -21z"/>
<path d="M4850 2254 c0 -15 22 -44 31 -39 11 7 -7 45 -21 45 -6 0 -10 -3 -10
-6z"/>
<path d="M4895 2201 c-11 -5 -25 -6 -31 -4 -12 4 -28 -26 -19 -35 7 -8 75 28
75 40 0 4 -1 8 -2 7 -2 0 -12 -4 -23 -8z"/>
<path d="M3422 2059 c2 -6 8 -10 13 -10 5 0 11 4 13 10 2 6 -4 11 -13 11 -9 0
-15 -5 -13 -11z"/>
<path d="M4055 2009 c22 -4 49 -8 60 -8 17 -1 17 1 5 9 -8 5 -35 9 -60 9 l-45
-1 40 -9z"/>
<path d="M5177 1842 c-38 -20 -64 -38 -59 -40 12 -4 128 53 137 68 11 17 -7
11 -78 -28z"/>
<path d="M1480 1860 c-8 -5 -12 -12 -8 -15 9 -9 48 4 48 16 0 12 -21 11 -40
-1z"/>
<path d="M5113 1749 c-25 -9 -30 -19 -10 -19 15 0 43 17 37 23 -3 3 -15 1 -27
-4z"/>
<path d="M5035 1720 c-3 -5 1 -10 9 -10 8 0 18 5 21 10 3 6 -1 10 -9 10 -8 0
-18 -4 -21 -10z"/>
<path d="M1355 1690 c-3 -5 -1 -10 4 -10 6 0 11 5 11 10 0 6 -2 10 -4 10 -3 0
-8 -4 -11 -10z"/>
<path d="M1256 1631 c-4 -5 -2 -12 3 -15 5 -4 12 -2 15 3 4 5 2 12 -3 15 -5 4
-12 2 -15 -3z"/>
<path d="M1090 1535 c-9 -10 -9 -15 -1 -15 6 0 11 -8 11 -17 1 -14 4 -12 15 7
8 14 14 28 15 33 0 13 -27 8 -40 -8z"/>
<path d="M8688 1503 c7 -3 16 -2 19 1 4 3 -2 6 -13 5 -11 0 -14 -3 -6 -6z"/>
<path d="M1108 1423 c6 -2 18 -2 25 0 6 3 1 5 -13 5 -14 0 -19 -2 -12 -5z"/>
<path d="M4650 1400 c0 -5 5 -10 10 -10 6 0 10 5 10 10 0 6 -4 10 -10 10 -5 0
-10 -4 -10 -10z"/>
<path d="M1030 1348 c0 -19 2 -20 10 -8 13 19 13 30 0 30 -5 0 -10 -10 -10
-22z"/>
<path d="M4376 862 c-2 -4 -1 -14 5 -22 7 -12 9 -10 9 8 0 23 -5 28 -14 14z"/>
<path d="M5298 144 c66 -60 113 -94 162 -119 38 -20 42 -19 38 7 -2 14 -15 25
-43 35 -21 7 -49 22 -60 33 -12 11 -25 20 -29 20 -5 0 -17 11 -28 25 -21 26
-68 55 -90 55 -7 0 15 -25 50 -56z"/>
</g>
</svg>
